<svg width="68" height="68" viewBox="0 0 68 68" fill="none" xmlns="http://www.w3.org/2000/svg">
<path d="M48.1758 7.24076L41.0879 5.66669C39.6703 8.50002 36.8352 9.91669 34 9.91669C31.1648 9.91669 28.3297 8.50002 26.9121 5.66669L19.8242 7.24076M48.1758 7.24076L49.3979 7.51216C52.2525 8.1461 54.8199 9.84047 55.854 12.574C57.7298 17.5326 59.269 25.4546 59.4894 36.8307C59.515 38.1551 59.5279 38.8173 59.1111 39.242C58.6942 39.6667 58.0233 39.6667 56.6813 39.6667H50.9037M48.1758 7.24076C48.1758 13.7858 48.7864 25.1334 50.9037 39.6667M50.9037 39.6667C51.3115 42.4658 52.1155 47.0835 52.7801 50.8004C53.2817 53.6055 53.5325 55.008 52.5818 56.7548C51.6311 58.5017 50.6711 58.9047 48.751 59.7108C45.5517 61.0538 40.7361 62.3334 34 62.3334C27.2639 62.3334 22.4483 61.0538 19.249 59.7108C17.3289 58.9047 16.3689 58.5017 15.4182 56.7548C14.4675 55.008 14.7183 53.6055 15.2199 50.8004C15.8845 47.0835 16.6885 42.4658 17.0963 39.6667M19.8242 7.24076L18.6021 7.51216C15.7475 8.1461 13.1801 9.84047 12.146 12.574C10.2702 17.5326 8.73099 25.4546 8.51063 36.8307C8.48498 38.1551 8.47215 38.8173 8.88895 39.242C9.30575 39.6667 9.97674 39.6667 11.3187 39.6667H17.0963M19.8242 7.24076C19.8242 13.7858 19.2136 25.1334 17.0963 39.6667" stroke="url(#paint0_linear_2383_11107)" stroke-width="2" stroke-linecap="round" stroke-linejoin="round"/>
<path d="M39.7545 8.5C39.338 18.3551 40.0044 38.9522 51 42.5M28.246 8.5C28.6625 18.3551 27.9947 38.9522 17 42.5" stroke="url(#paint1_linear_2383_11107)" stroke-width="2" stroke-linecap="round" stroke-linejoin="round"/>
<defs>
<linearGradient id="paint0_linear_2383_11107" x1="59.5" y1="34" x2="8.5" y2="34" gradientUnits="userSpaceOnUse">
<stop stop-color="#EF536B"/>
<stop offset="1" stop-color="#F79355"/>
</linearGradient>
<linearGradient id="paint1_linear_2383_11107" x1="51" y1="25.5" x2="17" y2="25.5" gradientUnits="userSpaceOnUse">
<stop stop-color="#EF536B"/>
<stop offset="1" stop-color="#F79355"/>
</linearGradient>
</defs>
</svg>
