<svg width="68" height="68" viewBox="0 0 68 68" fill="none" xmlns="http://www.w3.org/2000/svg">
<path d="M34 5.66669C27.7408 5.66669 22.6667 10.9166 22.6667 17.3926C22.6667 19.5284 23.2186 21.5308 24.1829 23.2556C16.8813 21.3112 8.5 26.9483 8.5 34.9815C8.5 44.0605 17.395 48.2349 24.962 46.2593C27.4089 45.6205 28.6323 45.3011 28.979 45.6764C30.3053 47.1123 26.4806 54.2804 25.7909 55.6973C24.4921 58.3653 23.8427 59.6993 24.3459 60.532C25.5415 62.5105 41.9675 63.323 43.6541 60.532C44.1573 59.6993 43.5079 58.3653 42.2091 55.6973C41.5193 54.2804 37.6947 47.1123 39.021 45.6764C39.3676 45.3011 40.5911 45.6205 43.038 46.2593C50.5716 48.2262 59.5 43.9697 59.5 34.9815C59.5 27.0048 51.0942 21.3177 43.8171 23.2556C44.7814 21.5308 45.3333 19.5284 45.3333 17.3926C45.3333 10.9166 40.2592 5.66669 34 5.66669Z" stroke="url(#paint0_linear_2383_11128)" stroke-width="2" stroke-linecap="round" stroke-linejoin="round"/>
<defs>
<linearGradient id="paint0_linear_2383_11128" x1="59.5" y1="34" x2="8.5" y2="34" gradientUnits="userSpaceOnUse">
<stop stop-color="#EF536B"/>
<stop offset="1" stop-color="#F79355"/>
</linearGradient>
</defs>
</svg>
