<svg width="68" height="68" viewBox="0 0 68 68" fill="none" xmlns="http://www.w3.org/2000/svg">
<path d="M33.9998 62.3334V17C33.9998 11.6574 33.9998 8.98614 32.3401 7.32642C30.6804 5.66669 28.0091 5.66669 22.6665 5.66669H16.9998C11.6573 5.66669 8.98596 5.66669 7.32623 7.32642C5.6665 8.98614 5.6665 11.6574 5.6665 17V51C5.6665 56.3426 5.6665 59.0139 7.32623 60.6736C8.98596 62.3334 11.6573 62.3334 16.9998 62.3334H33.9998Z" stroke="url(#paint0_linear_2383_10543)" stroke-width="2"/>
<path d="M34 62.3334H51C56.3426 62.3334 59.0139 62.3334 60.6736 60.6736C62.3333 59.0139 62.3333 56.3426 62.3333 51V34C62.3333 28.6574 62.3333 25.9861 60.6736 24.3264C59.0139 22.6667 56.3426 22.6667 51 22.6667H34" stroke="url(#paint1_linear_2383_10543)" stroke-width="2"/>
<path d="M52.4165 45.3333H43.9165M52.4165 34L43.9165 34" stroke="url(#paint2_linear_2383_10543)" stroke-width="2" stroke-linecap="round"/>
<path d="M24.083 39.6667H15.583M24.083 28.3333H15.583M24.083 17H15.583" stroke="url(#paint3_linear_2383_10543)" stroke-width="2" stroke-linecap="round"/>
<defs>
<linearGradient id="paint0_linear_2383_10543" x1="33.9998" y1="34" x2="5.6665" y2="34" gradientUnits="userSpaceOnUse">
<stop stop-color="#EF536B"/>
<stop offset="1" stop-color="#F79355"/>
</linearGradient>
<linearGradient id="paint1_linear_2383_10543" x1="62.3333" y1="42.5" x2="34" y2="42.5" gradientUnits="userSpaceOnUse">
<stop stop-color="#EF536B"/>
<stop offset="1" stop-color="#F79355"/>
</linearGradient>
<linearGradient id="paint2_linear_2383_10543" x1="52.4165" y1="39.6667" x2="43.9165" y2="39.6667" gradientUnits="userSpaceOnUse">
<stop stop-color="#EF536B"/>
<stop offset="1" stop-color="#F79355"/>
</linearGradient>
<linearGradient id="paint3_linear_2383_10543" x1="24.083" y1="28.3333" x2="15.583" y2="28.3333" gradientUnits="userSpaceOnUse">
<stop stop-color="#EF536B"/>
<stop offset="1" stop-color="#F79355"/>
</linearGradient>
</defs>
</svg>
