<svg width="32" height="32" viewBox="0 0 32 32" fill="none" xmlns="http://www.w3.org/2000/svg">
<path d="M22.668 14.4059C22.668 13.9451 22.668 13.7147 22.7374 13.5093C22.939 12.9126 23.4703 12.681 24.0028 12.4385C24.6013 12.1659 24.9006 12.0296 25.1971 12.0056C25.5337 11.9784 25.8709 12.0509 26.1586 12.2124C26.5401 12.4265 26.8061 12.8332 27.0785 13.164C28.3363 14.6918 28.9652 15.4557 29.1954 16.2981C29.3811 16.9779 29.3811 17.6888 29.1954 18.3686C28.8597 19.5972 27.7993 20.6271 27.0144 21.5805C26.6128 22.0682 26.4121 22.312 26.1586 22.4543C25.8709 22.6158 25.5337 22.6883 25.1971 22.6611C24.9006 22.6371 24.6013 22.5008 24.0028 22.2282C23.4703 21.9857 22.939 21.7541 22.7374 21.1574C22.668 20.952 22.668 20.7216 22.668 20.2607V14.4059Z" stroke="url(#paint0_linear_2367_8121)" stroke-width="2"/>
<path d="M9.33398 14.4058C9.33398 13.8255 9.31769 13.3039 8.84853 12.8959C8.67789 12.7475 8.45166 12.6445 7.99919 12.4384C7.40066 12.1657 7.10139 12.0294 6.80487 12.0055C5.9152 11.9335 5.43654 12.5407 4.92349 13.1639C3.66565 14.6917 3.03673 15.4555 2.8066 16.2979C2.62089 16.9777 2.62089 17.6886 2.8066 18.3684C3.14226 19.5971 4.20268 20.627 4.9876 21.5804C5.48237 22.1813 5.95501 22.7297 6.80487 22.6609C7.10139 22.6369 7.40066 22.5006 7.99919 22.228C8.45166 22.0219 8.67789 21.9189 8.84853 21.7705C9.31769 21.3625 9.33398 20.8409 9.33398 20.2606V14.4058Z" stroke="url(#paint1_linear_2367_8121)" stroke-width="2"/>
<path d="M6.66797 12C6.66797 7.58172 10.8466 4 16.0013 4C21.156 4 25.3346 7.58172 25.3346 12" stroke="url(#paint2_linear_2367_8121)" stroke-width="2" stroke-linecap="square" stroke-linejoin="round"/>
<path d="M25.334 22.6666V23.7333C25.334 26.0897 22.9462 28 20.0007 28H17.334" stroke="url(#paint3_linear_2367_8121)" stroke-width="2" stroke-linecap="round" stroke-linejoin="round"/>
<defs>
<linearGradient id="paint0_linear_2367_8121" x1="29.3346" y1="17.3333" x2="22.668" y2="17.3333" gradientUnits="userSpaceOnUse">
<stop stop-color="#EF536B"/>
<stop offset="1" stop-color="#F79355"/>
</linearGradient>
<linearGradient id="paint1_linear_2367_8121" x1="2.66732" y1="17.3332" x2="9.33398" y2="17.3332" gradientUnits="userSpaceOnUse">
<stop stop-color="#EF536B"/>
<stop offset="1" stop-color="#F79355"/>
</linearGradient>
<linearGradient id="paint2_linear_2367_8121" x1="25.3346" y1="8" x2="6.66797" y2="8" gradientUnits="userSpaceOnUse">
<stop stop-color="#EF536B"/>
<stop offset="1" stop-color="#F79355"/>
</linearGradient>
<linearGradient id="paint3_linear_2367_8121" x1="25.334" y1="25.3333" x2="17.334" y2="25.3333" gradientUnits="userSpaceOnUse">
<stop stop-color="#EF536B"/>
<stop offset="1" stop-color="#F79355"/>
</linearGradient>
</defs>
</svg>
