<svg width="68" height="68" viewBox="0 0 68 68" fill="none" xmlns="http://www.w3.org/2000/svg">
<path d="M5.66675 28.3333H23.0353C23.7116 28.3333 24.3657 28.0628 24.8792 27.5706L32.1562 20.596C33.2172 19.5791 34.7829 19.5791 35.844 20.596L43.121 27.5706C43.6345 28.0628 44.2885 28.3333 44.9649 28.3333H62.3334" stroke="url(#paint0_linear_2375_9917)" stroke-width="2" stroke-linecap="round" stroke-linejoin="round"/>
<path d="M8.5 28.3333L14.0562 15.3689C16.4973 9.6729 18.2761 8.5 24.4732 8.5H43.5268C49.7239 8.5 51.5027 9.6729 53.9438 15.3689L59.5 28.3333" stroke="url(#paint1_linear_2375_9917)" stroke-width="2" stroke-linecap="round" stroke-linejoin="round"/>
<path d="M8.5 28.3333L8.5 59.5" stroke="url(#paint2_linear_2375_9917)" stroke-width="2" stroke-linecap="round" stroke-linejoin="round"/>
<path d="M59.5 28.3333L59.5 59.5" stroke="url(#paint3_linear_2375_9917)" stroke-width="2" stroke-linecap="round" stroke-linejoin="round"/>
<path d="M5.66675 59.5L62.3334 59.5" stroke="url(#paint4_linear_2375_9917)" stroke-width="1.5" stroke-linecap="round" stroke-linejoin="round"/>
<path d="M34.0228 31.1667L33.9973 31.1667" stroke="url(#paint5_linear_2375_9917)" stroke-width="2" stroke-linecap="round" stroke-linejoin="round"/>
<path d="M26.9167 59.5V46.75C26.9167 44.4028 28.8195 42.5 31.1667 42.5H36.8334C39.1806 42.5 41.0834 44.4028 41.0834 46.75V59.5" stroke="url(#paint6_linear_2375_9917)" stroke-width="2" stroke-linecap="round" stroke-linejoin="round"/>
<path d="M17 39.6667H19.8333" stroke="url(#paint7_linear_2375_9917)" stroke-width="2" stroke-linecap="round" stroke-linejoin="round"/>
<path d="M48.1667 39.6667L51.0001 39.6667" stroke="url(#paint8_linear_2375_9917)" stroke-width="2" stroke-linecap="round" stroke-linejoin="round"/>
<defs>
<linearGradient id="paint0_linear_2375_9917" x1="62.3334" y1="24.0833" x2="5.66675" y2="24.0833" gradientUnits="userSpaceOnUse">
<stop stop-color="#EF536B"/>
<stop offset="1" stop-color="#F79355"/>
</linearGradient>
<linearGradient id="paint1_linear_2375_9917" x1="59.5" y1="18.4167" x2="8.5" y2="18.4167" gradientUnits="userSpaceOnUse">
<stop stop-color="#EF536B"/>
<stop offset="1" stop-color="#F79355"/>
</linearGradient>
<linearGradient id="paint2_linear_2375_9917" x1="9.5" y1="43.9166" x2="8.5" y2="43.9166" gradientUnits="userSpaceOnUse">
<stop stop-color="#EF536B"/>
<stop offset="1" stop-color="#F79355"/>
</linearGradient>
<linearGradient id="paint3_linear_2375_9917" x1="60.5" y1="43.9166" x2="59.5" y2="43.9166" gradientUnits="userSpaceOnUse">
<stop stop-color="#EF536B"/>
<stop offset="1" stop-color="#F79355"/>
</linearGradient>
<linearGradient id="paint4_linear_2375_9917" x1="34.0001" y1="58.5" x2="34.0001" y2="59.5" gradientUnits="userSpaceOnUse">
<stop stop-color="#EF536B"/>
<stop offset="1" stop-color="#F79355"/>
</linearGradient>
<linearGradient id="paint5_linear_2375_9917" x1="33.9968" y1="29.75" x2="34.0222" y2="29.75" gradientUnits="userSpaceOnUse">
<stop stop-color="#EF536B"/>
<stop offset="1" stop-color="#F79355"/>
</linearGradient>
<linearGradient id="paint6_linear_2375_9917" x1="41.0834" y1="51" x2="26.9167" y2="51" gradientUnits="userSpaceOnUse">
<stop stop-color="#EF536B"/>
<stop offset="1" stop-color="#F79355"/>
</linearGradient>
<linearGradient id="paint7_linear_2375_9917" x1="19.8333" y1="40.1667" x2="17" y2="40.1667" gradientUnits="userSpaceOnUse">
<stop stop-color="#EF536B"/>
<stop offset="1" stop-color="#F79355"/>
</linearGradient>
<linearGradient id="paint8_linear_2375_9917" x1="51.0001" y1="40.1667" x2="48.1667" y2="40.1667" gradientUnits="userSpaceOnUse">
<stop stop-color="#EF536B"/>
<stop offset="1" stop-color="#F79355"/>
</linearGradient>
</defs>
</svg>
