<svg width="68" height="68" viewBox="0 0 68 68" fill="none" xmlns="http://www.w3.org/2000/svg">
<path d="M30.7097 55.9954H46.6571C54.7755 55.9954 58.8347 55.9954 60.8099 53.8441C61.3641 53.2404 61.7934 52.5413 62.0749 51.7838C63.0781 49.0844 61.1067 45.6839 57.1641 38.883M30.7097 55.9954L38.9767 49.6575M30.7097 55.9954L38.9767 62.3334M52.3876 30.6437L43.9369 16.0664C40.3204 9.82802 38.5121 6.70881 35.9846 5.95381C34.7029 5.57098 33.3301 5.57098 32.0484 5.95381C29.5209 6.70881 27.7126 9.82802 24.0961 16.0664M52.3876 30.6437L42.5334 26.935M52.3876 30.6437L54.0001 20.6164M19.3196 24.3058L10.584 39.3744C6.90036 45.7286 5.05854 48.9057 5.84701 51.4572C6.15393 52.4504 6.71019 53.3563 7.46711 54.0958C9.41161 55.9954 13.2042 55.9954 20.7893 55.9954M19.3196 24.3058L20.8542 34.3442M19.3196 24.3058L9.43681 27.9441" stroke="url(#paint0_linear_2620_14934)" stroke-width="2" stroke-linecap="round" stroke-linejoin="round"/>
<defs>
<linearGradient id="paint0_linear_2620_14934" x1="62.3337" y1="34" x2="5.66699" y2="34" gradientUnits="userSpaceOnUse">
<stop stop-color="#EF536B"/>
<stop offset="1" stop-color="#F79355"/>
</linearGradient>
</defs>
</svg>
