<svg width="68" height="68" viewBox="0 0 68 68" fill="none" xmlns="http://www.w3.org/2000/svg">
<path d="M33.9946 5.66669C25.4725 5.66669 19.9469 11.3872 13.4119 13.4722C10.7547 14.3201 9.42609 14.744 8.88841 15.3415C8.35073 15.9391 8.19328 16.8123 7.87839 18.5587C4.50874 37.247 11.8739 54.5246 29.4388 61.2495C31.3261 61.9721 32.2697 62.3334 34.0039 62.3334C35.738 62.3333 36.6816 61.9721 38.5687 61.2495C56.1326 54.5245 63.4907 37.2469 60.1201 18.5587C59.8051 16.812 59.6475 15.9386 59.1097 15.3411C58.5719 14.7435 57.2435 14.3198 54.5864 13.4725C48.0489 11.3876 42.5169 5.66669 33.9946 5.66669Z" stroke="url(#paint0_linear_2383_12259)" stroke-width="2" stroke-linecap="round" stroke-linejoin="round"/>
<path d="M27.1439 44.9289L26.7382 45.843L26.7382 45.843L27.1439 44.9289ZM24.4604 42.0538L23.5277 42.4144H23.5277L24.4604 42.0538ZM43.5389 42.0538L44.4716 42.4144V42.4144L43.5389 42.0538ZM40.8555 44.9289L41.2611 45.843H41.2611L40.8555 44.9289ZM40.8555 29.8002L41.2611 28.8862V28.8862L40.8555 29.8002ZM43.5389 32.6753L44.4716 32.3147V32.3147L43.5389 32.6753ZM27.1439 29.8002L26.7382 28.8862V28.8862L27.1439 29.8002ZM24.4604 32.6753L23.5277 32.3147V32.3147L24.4604 32.6753ZM28.0413 29.3958C28.0413 29.9481 28.4891 30.3958 29.0413 30.3958C29.5936 30.3958 30.0413 29.9481 30.0413 29.3958H29.0413H28.0413ZM37.958 29.3958C37.958 29.9481 38.4057 30.3958 38.958 30.3958C39.5103 30.3958 39.958 29.9481 39.958 29.3958H38.958H37.958ZM31.5205 29.3958V30.3958H36.4788V29.3958V28.3958H31.5205V29.3958ZM36.4788 45.3333V44.3333H31.5205V45.3333V46.3333H36.4788V45.3333ZM31.5205 45.3333V44.3333C30.3507 44.3333 29.527 44.3327 28.8804 44.2854C28.2443 44.2389 27.8564 44.1511 27.5495 44.0149L27.1439 44.9289L26.7382 45.843C27.3425 46.1111 27.9878 46.2255 28.7346 46.2801C29.471 46.3339 30.38 46.3333 31.5205 46.3333V45.3333ZM24.083 37.3646H23.083C23.083 38.5894 23.0825 39.5549 23.1322 40.3349C23.1824 41.1226 23.2866 41.7907 23.5277 42.4144L24.4604 42.0538L25.3932 41.6932C25.2568 41.3406 25.1724 40.9017 25.1282 40.2078C25.0835 39.5061 25.083 38.615 25.083 37.3646H24.083ZM27.1439 44.9289L27.5495 44.0149C26.5898 43.5889 25.8062 42.7617 25.3932 41.6932L24.4604 42.0538L23.5277 42.4144C24.1211 43.9494 25.2681 45.1905 26.7382 45.843L27.1439 44.9289ZM43.9163 37.3646H42.9163C42.9163 38.615 42.9159 39.5061 42.8712 40.2078C42.827 40.9017 42.7425 41.3406 42.6062 41.6932L43.5389 42.0538L44.4716 42.4144C44.7127 41.7907 44.817 41.1226 44.8671 40.3349C44.9168 39.5549 44.9163 38.5894 44.9163 37.3646H43.9163ZM36.4788 45.3333V46.3333C37.6193 46.3333 38.5284 46.3339 39.2647 46.2801C40.0115 46.2255 40.6568 46.1111 41.2611 45.843L40.8555 44.9289L40.4498 44.0149C40.1429 44.1511 39.755 44.2389 39.1189 44.2854C38.4723 44.3327 37.6486 44.3333 36.4788 44.3333V45.3333ZM43.5389 42.0538L42.6062 41.6932C42.1931 42.7617 41.4096 43.5889 40.4498 44.0149L40.8555 44.9289L41.2611 45.843C42.7312 45.1905 43.8782 43.9494 44.4716 42.4144L43.5389 42.0538ZM36.4788 29.3958V30.3958C37.6486 30.3958 38.4723 30.3964 39.1189 30.4437C39.755 30.4902 40.1429 30.578 40.4498 30.7142L40.8555 29.8002L41.2611 28.8862C40.6568 28.618 40.0115 28.5036 39.2647 28.449C38.5284 28.3952 37.6193 28.3958 36.4788 28.3958V29.3958ZM43.9163 37.3646H44.9163C44.9163 36.1397 44.9168 35.1743 44.8671 34.3942C44.817 33.6065 44.7127 32.9384 44.4716 32.3147L43.5389 32.6753L42.6062 33.0359C42.7425 33.3885 42.827 33.8274 42.8712 34.5214C42.9159 35.2231 42.9163 36.1141 42.9163 37.3646H43.9163ZM40.8555 29.8002L40.4498 30.7142C41.4096 31.1402 42.1931 31.9675 42.6062 33.0359L43.5389 32.6753L44.4716 32.3147C43.8782 30.7797 42.7312 29.5386 41.2611 28.8862L40.8555 29.8002ZM31.5205 29.3958V28.3958C30.38 28.3958 29.471 28.3952 28.7346 28.449C27.9878 28.5036 27.3425 28.618 26.7382 28.8862L27.1439 29.8002L27.5495 30.7142C27.8564 30.578 28.2443 30.4902 28.8804 30.4437C29.527 30.3964 30.3507 30.3958 31.5205 30.3958V29.3958ZM24.083 37.3646H25.083C25.083 36.1141 25.0835 35.2231 25.1282 34.5214C25.1724 33.8274 25.2568 33.3885 25.3932 33.0359L24.4604 32.6753L23.5277 32.3147C23.2866 32.9384 23.1824 33.6065 23.1322 34.3942C23.0825 35.1743 23.083 36.1397 23.083 37.3646H24.083ZM27.1439 29.8002L26.7382 28.8862C25.2681 29.5386 24.1211 30.7797 23.5277 32.3147L24.4604 32.6753L25.3932 33.0359C25.8062 31.9675 26.5898 31.1402 27.5495 30.7142L27.1439 29.8002ZM29.0413 29.3958H30.0413V24.6146H29.0413H28.0413V29.3958H29.0413ZM38.958 24.6146H37.958V29.3958H38.958H39.958V24.6146H38.958ZM33.9997 19.8333V20.8333C36.2204 20.8333 37.958 22.5602 37.958 24.6146H38.958H39.958C39.958 21.3877 37.2558 18.8333 33.9997 18.8333V19.8333ZM29.0413 24.6146H30.0413C30.0413 22.5602 31.779 20.8333 33.9997 20.8333V19.8333V18.8333C30.7436 18.8333 28.0413 21.3877 28.0413 24.6146H29.0413Z" fill="url(#paint1_linear_2383_12259)"/>
<defs>
<linearGradient id="paint0_linear_2383_12259" x1="60.9163" y1="34" x2="7.08301" y2="34" gradientUnits="userSpaceOnUse">
<stop stop-color="#EF536B"/>
<stop offset="1" stop-color="#F79355"/>
</linearGradient>
<linearGradient id="paint1_linear_2383_12259" x1="43.9163" y1="32.5833" x2="24.083" y2="32.5833" gradientUnits="userSpaceOnUse">
<stop stop-color="#EF536B"/>
<stop offset="1" stop-color="#F79355"/>
</linearGradient>
</defs>
</svg>
