<svg width="32" height="32" viewBox="0 0 32 32" fill="none" xmlns="http://www.w3.org/2000/svg">
<path d="M18.0007 22.6667H22.6673M22.6673 22.6667V18M22.6673 22.6667L17.334 17.3334M14.6673 14.6667L9.33398 9.33337M9.33398 9.33337H14.0007M9.33398 9.33337V14" stroke="url(#paint0_linear_2383_12705)" stroke-width="2" stroke-linecap="round" stroke-linejoin="round"/>
<path d="M3.33398 16C3.33398 10.0289 3.33398 7.04335 5.18897 5.18836C7.04397 3.33337 10.0295 3.33337 16.0007 3.33337C21.9718 3.33337 24.9573 3.33337 26.8123 5.18836C28.6673 7.04335 28.6673 10.0289 28.6673 16C28.6673 21.9712 28.6673 24.9567 26.8123 26.8117C24.9573 28.6667 21.9718 28.6667 16.0007 28.6667C10.0295 28.6667 7.04397 28.6667 5.18897 26.8117C3.33398 24.9567 3.33398 21.9712 3.33398 16Z" stroke="url(#paint1_linear_2383_12705)" stroke-width="2"/>
<defs>
<linearGradient id="paint0_linear_2383_12705" x1="22.6673" y1="16" x2="9.33398" y2="16" gradientUnits="userSpaceOnUse">
<stop stop-color="#EF536B"/>
<stop offset="1" stop-color="#F79355"/>
</linearGradient>
<linearGradient id="paint1_linear_2383_12705" x1="28.6673" y1="16" x2="3.33398" y2="16" gradientUnits="userSpaceOnUse">
<stop stop-color="#EF536B"/>
<stop offset="1" stop-color="#F79355"/>
</linearGradient>
</defs>
</svg>
