<svg width="68" height="68" viewBox="0 0 68 68" fill="none" xmlns="http://www.w3.org/2000/svg">
<path d="M8.5 29.75V43.9167C8.5 51.9305 8.5 55.9375 10.9896 58.4271C13.4792 60.9167 17.4861 60.9167 25.5 60.9167H42.5C50.5139 60.9167 54.5208 60.9167 57.0104 58.4271C59.5 55.9375 59.5 51.9305 59.5 43.9167V29.75" stroke="url(#paint0_linear_2383_10536)" stroke-width="2" stroke-linecap="round"/>
<path d="M42.5 48.1667C40.5617 49.8872 37.4758 51 34 51C30.5242 51 27.4383 49.8872 25.5 48.1667" stroke="url(#paint1_linear_2383_10536)" stroke-width="2" stroke-linecap="round"/>
<path d="M8.25097 14.8327L7.29906 14.5263V14.5263L8.25097 14.8327ZM6.31374 20.8514L7.26565 21.1578V21.1578L6.31374 20.8514ZM59.7497 14.8327L58.7978 15.1391V15.1391L59.7497 14.8327ZM61.6869 20.8514L62.6388 20.545V20.545L61.6869 20.8514ZM26.5594 28.481C26.1714 28.088 25.5383 28.084 25.1453 28.472C24.7522 28.86 24.7482 29.4932 25.1362 29.8862L25.8478 29.1836L26.5594 28.481ZM42.8646 28.4793C42.4767 28.0862 41.8435 28.082 41.4504 28.4699C41.0573 28.8578 41.0531 29.491 41.441 29.8841L42.1528 29.1817L42.8646 28.4793ZM6.73043 27.1151L7.5411 26.5296H7.5411L6.73043 27.1151ZM29.7173 24.3342C29.8558 23.7996 29.5348 23.2539 29.0002 23.1153C28.4656 22.9767 27.9198 23.2978 27.7812 23.8324L28.7493 24.0833L29.7173 24.3342ZM46.0203 24.3342C46.1589 23.7996 45.8379 23.2539 45.3032 23.1153C44.7686 22.9767 44.2229 23.2978 44.0843 23.8324L45.0523 24.0833L46.0203 24.3342ZM61.2702 27.1151L60.4596 26.5296V26.5296L61.2702 27.1151ZM62.2586 24.6689L61.2705 24.5147V24.5147L62.2586 24.6689ZM5.74208 24.6689L4.75404 24.8231H4.75404L5.74208 24.6689ZM11.4897 8.15294L10.8915 7.35157V7.35157L11.4897 8.15294ZM8.25097 14.8327L7.29906 14.5263L5.36184 20.545L6.31374 20.8514L7.26565 21.1578L9.20288 15.1391L8.25097 14.8327ZM59.7497 14.8327L58.7978 15.1391L60.735 21.1578L61.6869 20.8514L62.6388 20.545L60.7016 14.5263L59.7497 14.8327ZM18.6329 7.08331V8.08331H49.3677V7.08331V6.08331H18.6329V7.08331ZM33.9984 32.5833V31.5833C31.0829 31.5833 28.4499 30.3958 26.5594 28.481L25.8478 29.1836L25.1362 29.8862C27.3886 32.1675 30.5286 33.5833 33.9984 33.5833V32.5833ZM50.3053 32.5833V31.5833C47.3889 31.5833 44.7552 30.3951 42.8646 28.4793L42.1528 29.1817L41.441 29.8841C43.6936 32.1666 46.8344 33.5833 50.3053 33.5833V32.5833ZM17.6953 32.5833V31.5833C13.8572 31.5833 9.71036 29.5331 7.5411 26.5296L6.73043 27.1151L5.91976 27.7006C8.4853 31.2527 13.2504 33.5833 17.6953 33.5833V32.5833ZM28.7493 24.0833L27.7812 23.8324C26.6269 28.286 22.5512 31.5833 17.6953 31.5833V32.5833V33.5833C23.476 33.5833 28.3376 29.6569 29.7173 24.3342L28.7493 24.0833ZM45.0523 24.0833L44.0843 23.8324C42.9299 28.286 38.8543 31.5833 33.9984 31.5833V32.5833V33.5833C39.779 33.5833 44.6407 29.6569 46.0203 24.3342L45.0523 24.0833ZM61.2702 27.1151L60.4596 26.5296C58.2903 29.5331 54.1435 31.5833 50.3053 31.5833V32.5833V33.5833C54.7503 33.5833 59.5154 31.2527 62.0809 27.7006L61.2702 27.1151ZM61.6869 20.8514L60.735 21.1578C61.2619 22.7949 61.4444 23.4006 61.2705 24.5147L62.2586 24.6689L63.2466 24.8231C63.5019 23.1875 63.1601 22.1647 62.6388 20.545L61.6869 20.8514ZM61.2702 27.1151L62.0809 27.7006C62.3304 27.3552 62.5866 27.0061 62.7912 26.5459C62.9973 26.0824 63.1327 25.5529 63.2466 24.8231L62.2586 24.6689L61.2705 24.5147C61.1699 25.1597 61.0691 25.4962 60.9636 25.7335C60.8567 25.9741 60.7259 26.1608 60.4596 26.5296L61.2702 27.1151ZM59.7497 14.8327L60.7016 14.5263C60.1066 12.6777 59.6366 11.2128 59.1284 10.0816C58.6107 8.92907 58.0132 8.02637 57.1091 7.35157L56.5109 8.15294L55.9128 8.95431C56.4417 9.34914 56.8616 9.91628 57.3041 10.9012C57.7561 11.9075 58.189 13.2476 58.7978 15.1391L59.7497 14.8327ZM49.3677 7.08331V8.08331C51.295 8.08331 52.6535 8.08493 53.7121 8.2101C54.743 8.33199 55.3868 8.56167 55.9128 8.95431L56.5109 8.15294L57.1091 7.35157C56.2022 6.67458 55.1777 6.36945 53.9469 6.22393C52.7439 6.08169 51.2473 6.08331 49.3677 6.08331V7.08331ZM6.31374 20.8514L5.36184 20.545C4.8405 22.1647 4.4988 23.1875 4.75404 24.8231L5.74208 24.6689L6.73012 24.5147C6.55627 23.4006 6.7387 22.7949 7.26565 21.1578L6.31374 20.8514ZM6.73043 27.1151L7.5411 26.5296C7.27472 26.1608 7.144 25.9741 7.03703 25.7335C6.93155 25.4962 6.83078 25.1597 6.73012 24.5147L5.74208 24.6689L4.75404 24.8231C4.86793 25.5529 5.0034 26.0824 5.20949 26.5459C5.41409 27.0061 5.67027 27.3552 5.91976 27.7006L6.73043 27.1151ZM8.25097 14.8327L9.20288 15.1391C9.8117 13.2476 10.2446 11.9075 10.6966 10.9012C11.139 9.91628 11.5589 9.34914 12.0879 8.95431L11.4897 8.15294L10.8915 7.35157C9.98749 8.02637 9.38995 8.92907 8.87221 10.0816C8.36407 11.2128 7.89407 12.6777 7.29906 14.5263L8.25097 14.8327ZM18.6329 7.08331V6.08331C16.7534 6.08331 15.2567 6.08169 14.0537 6.22393C12.8229 6.36945 11.7985 6.67458 10.8915 7.35157L11.4897 8.15294L12.0879 8.95431C12.6139 8.56167 13.2577 8.33199 14.2885 8.2101C15.3472 8.08493 16.7057 8.08331 18.6329 8.08331V7.08331Z" fill="url(#paint2_linear_2383_10536)"/>
<defs>
<linearGradient id="paint0_linear_2383_10536" x1="59.5" y1="45.3333" x2="8.5" y2="45.3333" gradientUnits="userSpaceOnUse">
<stop stop-color="#EF536B"/>
<stop offset="1" stop-color="#F79355"/>
</linearGradient>
<linearGradient id="paint1_linear_2383_10536" x1="42.5" y1="49.5834" x2="25.5" y2="49.5834" gradientUnits="userSpaceOnUse">
<stop stop-color="#EF536B"/>
<stop offset="1" stop-color="#F79355"/>
</linearGradient>
<linearGradient id="paint2_linear_2383_10536" x1="62.3337" y1="19.8333" x2="5.66699" y2="19.8333" gradientUnits="userSpaceOnUse">
<stop stop-color="#EF536B"/>
<stop offset="1" stop-color="#F79355"/>
</linearGradient>
</defs>
</svg>
