<svg width="32" height="32" viewBox="0 0 32 32" fill="none" xmlns="http://www.w3.org/2000/svg">
<path d="M5.33398 20V9.28803C5.33398 6.7632 5.33398 5.50078 6.11503 4.71642C6.55049 4.27911 7.13391 4.08562 8.00065 4H14.6673" stroke="url(#paint0_linear_2367_8076)" stroke-width="2" stroke-linecap="round" stroke-linejoin="round"/>
<path d="M19.0572 12.9428L19.7643 12.2357H19.7643L19.0572 12.9428ZM26.2761 12.9428L25.569 12.2357L25.569 12.2357L26.2761 12.9428ZM26.2761 5.72382L25.569 6.43092V6.43092L26.2761 5.72382ZM21.6667 13.3333C21.6667 12.781 21.219 12.3333 20.6667 12.3333C20.1144 12.3333 19.6667 12.781 19.6667 13.3333H20.6667H21.6667ZM19.6667 16C19.6667 16.5522 20.1144 17 20.6667 17C21.219 17 21.6667 16.5522 21.6667 16H20.6667H19.6667ZM25.6667 13.3333C25.6667 12.781 25.219 12.3333 24.6667 12.3333C24.1144 12.3333 23.6667 12.781 23.6667 13.3333H24.6667H25.6667ZM23.6667 16C23.6667 16.5522 24.1144 17 24.6667 17C25.219 17 25.6667 16.5522 25.6667 16H24.6667H23.6667ZM21.6667 2.66663C21.6667 2.11434 21.219 1.66663 20.6667 1.66663C20.1144 1.66663 19.6667 2.11434 19.6667 2.66663H20.6667H21.6667ZM19.6667 5.33329C19.6667 5.88558 20.1144 6.33329 20.6667 6.33329C21.219 6.33329 21.6667 5.88558 21.6667 5.33329H20.6667H19.6667ZM25.6667 2.66663C25.6667 2.11434 25.219 1.66663 24.6667 1.66663C24.1144 1.66663 23.6667 2.11434 23.6667 2.66663H24.6667H25.6667ZM23.6667 5.33329C23.6667 5.88558 24.1144 6.33329 24.6667 6.33329C25.219 6.33329 25.6667 5.88558 25.6667 5.33329H24.6667H23.6667ZM18.6667 8.33329C19.219 8.33329 19.6667 7.88558 19.6667 7.33329C19.6667 6.78101 19.219 6.33329 18.6667 6.33329V7.33329V8.33329ZM16 6.33329C15.4477 6.33329 15 6.78101 15 7.33329C15 7.88558 15.4477 8.33329 16 8.33329V7.33329V6.33329ZM18.6667 12.3333C19.219 12.3333 19.6667 11.8856 19.6667 11.3333C19.6667 10.781 19.219 10.3333 18.6667 10.3333V11.3333V12.3333ZM16 10.3333C15.4477 10.3333 15 10.781 15 11.3333C15 11.8856 15.4477 12.3333 16 12.3333V11.3333V10.3333ZM29.3333 8.33329C29.8856 8.33329 30.3333 7.88558 30.3333 7.33329C30.3333 6.78101 29.8856 6.33329 29.3333 6.33329V7.33329V8.33329ZM26.6667 6.33329C26.1144 6.33329 25.6667 6.78101 25.6667 7.33329C25.6667 7.88558 26.1144 8.33329 26.6667 8.33329V7.33329V6.33329ZM29.3333 12.3333C29.8856 12.3333 30.3333 11.8856 30.3333 11.3333C30.3333 10.781 29.8856 10.3333 29.3333 10.3333V11.3333V12.3333ZM26.6667 10.3333C26.1144 10.3333 25.6667 10.781 25.6667 11.3333C25.6667 11.8856 26.1144 12.3333 26.6667 12.3333V11.3333V10.3333ZM21.3333 5.33329V6.33329H24V5.33329V4.33329H21.3333V5.33329ZM26.6667 7.99996H25.6667V10.6666H26.6667H27.6667V7.99996H26.6667ZM24 13.3333V12.3333H21.3333V13.3333V14.3333H24V13.3333ZM18.6667 10.6666H19.6667V7.99996H18.6667H17.6667V10.6666H18.6667ZM21.3333 13.3333V12.3333C20.6765 12.3333 20.2845 12.3312 20.0036 12.2934C19.8748 12.2761 19.8103 12.2557 19.7813 12.2437C19.7746 12.241 19.7701 12.2388 19.7676 12.2375C19.765 12.2361 19.7639 12.2354 19.7638 12.2353C19.7637 12.2353 19.764 12.2355 19.7645 12.2359C19.7649 12.2362 19.7649 12.2363 19.7643 12.2357L19.0572 12.9428L18.3501 13.6499C18.7621 14.0619 19.2631 14.2118 19.7371 14.2756C20.1823 14.3354 20.7331 14.3333 21.3333 14.3333V13.3333ZM18.6667 10.6666H17.6667C17.6667 11.2669 17.6645 11.8177 17.7244 12.2629C17.7881 12.7369 17.9381 13.2378 18.3501 13.6499L19.0572 12.9428L19.7643 12.2357C19.7637 12.2351 19.7637 12.235 19.7641 12.2355C19.7645 12.236 19.7647 12.2363 19.7646 12.2362C19.7645 12.2361 19.7638 12.2349 19.7625 12.2324C19.7611 12.2298 19.759 12.2254 19.7562 12.2187C19.7443 12.1896 19.7239 12.1252 19.7066 11.9964C19.6688 11.7154 19.6667 11.3234 19.6667 10.6666H18.6667ZM26.6667 10.6666H25.6667C25.6667 11.3234 25.6645 11.7154 25.6268 11.9964C25.6095 12.1252 25.5891 12.1896 25.5771 12.2187C25.5744 12.2254 25.5722 12.2298 25.5709 12.2324C25.5695 12.2349 25.5688 12.2361 25.5687 12.2362C25.5687 12.2363 25.5689 12.236 25.5692 12.2355C25.5696 12.235 25.5696 12.2351 25.569 12.2357L26.2761 12.9428L26.9832 13.6499C27.3953 13.2378 27.5452 12.7369 27.6089 12.2629C27.6688 11.8177 27.6667 11.2669 27.6667 10.6666H26.6667ZM24 13.3333V14.3333C24.6003 14.3333 25.1511 14.3354 25.5963 14.2756C26.0703 14.2118 26.5712 14.0619 26.9832 13.6499L26.2761 12.9428L25.569 12.2357C25.5684 12.2363 25.5684 12.2362 25.5689 12.2359C25.5693 12.2355 25.5696 12.2353 25.5696 12.2353C25.5694 12.2354 25.5683 12.2361 25.5658 12.2375C25.5632 12.2388 25.5588 12.241 25.552 12.2437C25.523 12.2557 25.4585 12.2761 25.3298 12.2934C25.0488 12.3312 24.6568 12.3333 24 12.3333V13.3333ZM24 5.33329V6.33329C24.6568 6.33329 25.0488 6.33542 25.3298 6.37319C25.4585 6.3905 25.523 6.41089 25.552 6.42284C25.5588 6.4256 25.5632 6.42776 25.5658 6.42911C25.5683 6.43044 25.5694 6.43118 25.5696 6.43125C25.5696 6.43131 25.5693 6.4311 25.5689 6.43072C25.5684 6.43035 25.5684 6.43031 25.569 6.43092L26.2761 5.72382L26.9832 5.01671C26.5712 4.60468 26.0702 4.45475 25.5963 4.39103C25.1511 4.33117 24.6003 4.33329 24 4.33329V5.33329ZM26.6667 7.99996H27.6667C27.6667 7.39969 27.6688 6.84889 27.6089 6.40368C27.5452 5.92971 27.3953 5.42874 26.9832 5.01671L26.2761 5.72382L25.569 6.43092C25.5696 6.43153 25.5696 6.43155 25.5692 6.43109C25.5689 6.43063 25.5687 6.43031 25.5687 6.4304C25.5688 6.43051 25.5695 6.43164 25.5709 6.43419C25.5722 6.43677 25.5744 6.44118 25.5771 6.44791C25.5891 6.47695 25.6095 6.54143 25.6268 6.67018C25.6645 6.95114 25.6667 7.34315 25.6667 7.99996H26.6667ZM21.3333 5.33329V4.33329C20.7331 4.33329 20.1823 4.33117 19.7371 4.39103C19.2631 4.45475 18.7621 4.60468 18.3501 5.01671L19.0572 5.72382L19.7643 6.43092C19.7649 6.43031 19.7649 6.43035 19.7645 6.43072C19.764 6.4311 19.7637 6.43131 19.7638 6.43125C19.7639 6.43118 19.765 6.43044 19.7676 6.42911C19.7701 6.42776 19.7746 6.4256 19.7813 6.42284C19.8103 6.41089 19.8748 6.3905 20.0036 6.37319C20.2845 6.33542 20.6765 6.33329 21.3333 6.33329V5.33329ZM18.6667 7.99996H19.6667C19.6667 7.34315 19.6688 6.95114 19.7066 6.67018C19.7239 6.54143 19.7443 6.47695 19.7562 6.44791C19.759 6.44118 19.7611 6.43676 19.7625 6.43419C19.7638 6.43164 19.7645 6.43051 19.7646 6.4304C19.7647 6.43031 19.7645 6.43063 19.7641 6.43109C19.7637 6.43155 19.7637 6.43153 19.7643 6.43092L19.0572 5.72382L18.3501 5.01671C17.9381 5.42874 17.7881 5.92971 17.7244 6.40368C17.6645 6.84889 17.6667 7.39969 17.6667 7.99996H18.6667ZM20.6667 13.3333H19.6667V16H20.6667H21.6667V13.3333H20.6667ZM24.6667 13.3333H23.6667V16H24.6667H25.6667V13.3333H24.6667ZM20.6667 2.66663H19.6667V5.33329H20.6667H21.6667V2.66663H20.6667ZM24.6667 2.66663H23.6667V5.33329H24.6667H25.6667V2.66663H24.6667ZM18.6667 7.33329V6.33329H16V7.33329V8.33329H18.6667V7.33329ZM18.6667 11.3333V10.3333H16V11.3333V12.3333H18.6667V11.3333ZM29.3333 7.33329V6.33329H26.6667V7.33329V8.33329H29.3333V7.33329ZM29.3333 11.3333V10.3333H26.6667V11.3333V12.3333H29.3333V11.3333Z" fill="url(#paint1_linear_2367_8076)"/>
<path d="M4.66284 21.3539L5.35872 20H26.6017L27.3357 21.3539C29.2596 24.9026 29.7388 26.6769 29.0075 28.0051C28.2763 29.3333 26.3375 29.3333 22.4599 29.3333L9.53884 29.3333C5.66124 29.3333 3.72243 29.3333 2.99118 28.0051C2.25992 26.6769 2.73901 24.9026 4.66284 21.3539Z" stroke="url(#paint2_linear_2367_8076)" stroke-width="2" stroke-linecap="round" stroke-linejoin="round"/>
<defs>
<linearGradient id="paint0_linear_2367_8076" x1="14.6673" y1="12" x2="5.33398" y2="12" gradientUnits="userSpaceOnUse">
<stop stop-color="#EF536B"/>
<stop offset="1" stop-color="#F79355"/>
</linearGradient>
<linearGradient id="paint1_linear_2367_8076" x1="29.3333" y1="9.33329" x2="16" y2="9.33329" gradientUnits="userSpaceOnUse">
<stop stop-color="#EF536B"/>
<stop offset="1" stop-color="#F79355"/>
</linearGradient>
<linearGradient id="paint2_linear_2367_8076" x1="29.3327" y1="24.6667" x2="2.66602" y2="24.6667" gradientUnits="userSpaceOnUse">
<stop stop-color="#EF536B"/>
<stop offset="1" stop-color="#F79355"/>
</linearGradient>
</defs>
</svg>
