<svg width="88" height="88" viewBox="0 0 88 88" fill="none" xmlns="http://www.w3.org/2000/svg">
<path d="M58.6667 20.1665H29.3334C18.9625 20.1665 13.777 20.1665 10.5552 23.3883C7.33337 26.6102 7.33337 31.7956 7.33337 42.1665V54.9998C7.33337 65.3707 7.33337 70.5562 10.5552 73.778C13.777 76.9998 18.9625 76.9998 29.3334 76.9998H58.6667C69.0376 76.9998 74.2231 76.9998 77.4449 73.778C80.6667 70.5562 80.6667 65.3707 80.6667 54.9998V42.1665C80.6667 31.7956 80.6667 26.6102 77.4449 23.3883C74.2231 20.1665 69.0376 20.1665 58.6667 20.1665Z" stroke="#1A1E1D" stroke-width="4"/>
<path d="M45.8334 33L36.6667 47.6667H51.3334L42.1667 62.3333" stroke="#1A1E1D" stroke-width="4" stroke-linecap="round" stroke-linejoin="round"/>
<path d="M33.0001 20.1667V17.4167C33.0001 14.8418 33.0001 13.5544 32.3821 12.6296C32.1146 12.2292 31.7709 11.8855 31.3705 11.6179C30.4457 11 29.1583 11 26.5834 11C24.0086 11 22.7211 11 21.7963 11.6179C21.396 11.8855 21.0522 12.2292 20.7847 12.6296C20.1667 13.5544 20.1667 14.8418 20.1667 17.4167V20.1667" stroke="#1A1E1D" stroke-width="4" stroke-linecap="round" stroke-linejoin="round"/>
<path d="M67.8333 20.1667V17.4167C67.8333 14.8418 67.8333 13.5544 67.2154 12.6296C66.9479 12.2292 66.6041 11.8855 66.2038 11.6179C65.2789 11 63.9915 11 61.4167 11C58.8418 11 57.5544 11 56.6296 11.6179C56.2292 11.8855 55.8855 12.2292 55.6179 12.6296C55 13.5544 55 14.8418 55 17.4167V20.1667" stroke="#1A1E1D" stroke-width="4" stroke-linecap="round" stroke-linejoin="round"/>
</svg>
