<svg width="88" height="88" viewBox="0 0 88 88" fill="none" xmlns="http://www.w3.org/2000/svg">
<path d="M29.3345 22C18.9636 22 13.7781 22 10.5563 25.2218C7.33447 28.4437 7.33447 33.6291 7.33447 44C7.33447 54.3709 7.33447 59.5564 10.5563 62.7782C12.6437 64.8656 15.5555 65.6006 20.1678 65.8594M44.0011 65.9365L47.6678 66C58.0387 66 63.2242 66 66.446 62.7782C69.6678 59.5564 69.6678 54.3709 69.6678 44C69.6678 33.6291 69.6678 28.4437 66.446 25.2218C63.8525 22.6283 59.9866 22.1225 53.1678 22.0239" stroke="#393939" stroke-width="4" stroke-linecap="round"/>
<path d="M42.3963 22L31.504 38.2678C29.8172 40.787 28.9738 42.0466 29.4807 43.0233C29.9876 44 31.4848 44 34.479 44H38.8566C41.8508 44 43.348 44 43.8549 44.9767C44.3618 45.9534 43.5184 47.213 41.8316 49.7322L30.9393 66" stroke="#393939" stroke-width="4" stroke-linecap="round"/>
<path d="M69.6678 34.8333L73.4343 35.461C75.9323 35.8773 77.1813 36.0855 78.129 36.691C79.0612 37.2866 79.7922 38.1494 80.2264 39.1669C80.6678 40.2012 80.6678 41.4674 80.6678 43.9999C80.6678 46.5324 80.6678 47.7986 80.2264 48.833C79.7922 49.8504 79.0612 50.7133 78.129 51.3089C77.1813 51.9143 75.9323 52.1225 73.4343 52.5388L69.6678 53.1666" stroke="#393939" stroke-width="4" stroke-linecap="round"/>
</svg>
