<svg width="88" height="88" viewBox="0 0 88 88" fill="none" xmlns="http://www.w3.org/2000/svg">
<path d="M7.33331 44C7.33331 33.6291 7.33331 28.4437 10.5551 25.2218C13.777 22 18.9624 22 29.3333 22H47.6666C58.0375 22 63.223 22 66.4448 25.2218C69.6666 28.4437 69.6666 33.6291 69.6666 44C69.6666 54.3709 69.6666 59.5564 66.4448 62.7782C63.223 66 58.0375 66 47.6666 66H29.3333C18.9624 66 13.777 66 10.5551 62.7782C7.33331 59.5564 7.33331 54.3709 7.33331 44Z" stroke="#1A1E1D" stroke-width="4" stroke-linecap="round"/>
<path d="M69.6666 34.8335L73.4331 35.4612C75.9311 35.8776 77.1801 36.0857 78.1278 36.6912C79.06 37.2868 79.791 38.1497 80.2252 39.1671C80.6666 40.2014 80.6666 41.4677 80.6666 44.0002C80.6666 46.5327 80.6666 47.7989 80.2252 48.8332C79.791 49.8507 79.06 50.7135 78.1278 51.3091C77.1801 51.9146 75.9311 52.1228 73.4331 52.5391L69.6666 53.1668" stroke="#1A1E1D" stroke-width="4" stroke-linecap="round"/>
<path d="M22 36.6665V51.3332" stroke="#1A1E1D" stroke-width="4" stroke-linecap="round"/>
<path d="M33 36.6665V51.3332" stroke="#1A1E1D" stroke-width="4" stroke-linecap="round"/>
<path d="M44 36.6665V51.3332" stroke="#1A1E1D" stroke-width="4" stroke-linecap="round"/>
<path d="M55 36.6665V51.3332" stroke="#1A1E1D" stroke-width="4" stroke-linecap="round"/>
</svg>
