<svg width="88" height="88" viewBox="0 0 88 88" fill="none" xmlns="http://www.w3.org/2000/svg">
<path d="M42.1667 80.6668C27.4746 80.6668 20.1285 80.6668 15.5643 75.2971C11 69.9274 11 61.285 11 44.0002C11 26.7153 11 18.0729 15.5643 12.7032C20.1285 7.3335 27.4746 7.3335 42.1667 7.3335C56.8588 7.3335 64.2048 7.3335 68.7691 12.7032C72.4432 17.0257 73.1597 23.4688 73.2995 34.8335" stroke="#1A1E1D" stroke-width="4" stroke-linecap="round" stroke-linejoin="round"/>
<path d="M29.3333 29.3345H55M29.3333 47.6678H40.3333" stroke="#1A1E1D" stroke-width="4" stroke-linecap="round" stroke-linejoin="round"/>
<path d="M71.9005 66.3879C74.9911 64.138 77 60.4918 77 56.3765C77 49.5419 71.4595 44.0015 64.625 44.0015H63.7083C56.8738 44.0015 51.3333 49.5419 51.3333 56.3765C51.3333 60.4918 53.3422 64.138 56.4327 66.3879M71.9005 66.3879C69.8585 67.8745 67.3441 68.7515 64.625 68.7515H63.7083C60.9891 68.7515 58.4748 67.8745 56.4327 66.3879M71.9005 66.3879L74.0375 73.1164C74.8525 75.6826 75.26 76.9657 75.1485 77.7649C74.9166 79.4278 73.5604 80.6623 71.9591 80.6681C71.1896 80.6709 70.037 80.0661 67.7317 78.8563C66.7432 78.3375 66.2489 78.0781 65.7431 77.9256C64.713 77.6149 63.6203 77.6149 62.5901 77.9256C62.0844 78.0781 61.5901 78.3375 60.6016 78.8563C58.2963 80.0661 57.1437 80.6709 56.3741 80.6681C54.7729 80.6623 53.4167 79.4278 53.1847 77.7649C53.0733 76.9657 53.4808 75.6826 54.2958 73.1164L56.4327 66.3879" stroke="#1A1E1D" stroke-width="4"/>
</svg>
