<svg width="88" height="88" viewBox="0 0 88 88" fill="none" xmlns="http://www.w3.org/2000/svg">
<path d="M33 7.3335L33 18.3335" stroke="#393939" stroke-width="4" stroke-linecap="round" stroke-linejoin="round"/>
<path d="M55 7.3335L55 18.3335" stroke="#393939" stroke-width="6.1875" stroke-linecap="round" stroke-linejoin="round"/>
<path d="M44 66L44 80.6667" stroke="#393939" stroke-width="4" stroke-linecap="round" stroke-linejoin="round"/>
<path d="M46.5442 31.1665L38.8772 39.141C38.0556 39.9955 38.6444 41.2251 39.9843 41.4527L48.0157 42.8165C49.4442 43.059 49.989 44.4203 48.9903 45.2513L39.4775 53.1665" stroke="#393939" stroke-width="4" stroke-linecap="round" stroke-linejoin="round"/>
<path d="M52.4575 18.3335L35.5426 18.3335C27.7021 18.3335 23.7819 18.3335 21.6161 20.8919C19.4503 23.4502 20.0464 27.3769 21.2386 35.2303L23.1589 47.88C25.0656 60.4401 30.3816 66.0002 44.0001 66.0002C57.6185 66.0002 62.9345 60.4401 64.8413 47.88L66.7616 35.2303C67.9538 27.3769 68.5499 23.4502 66.3841 20.8919C64.2183 18.3335 60.2981 18.3335 52.4575 18.3335Z" stroke="#393939" stroke-width="4"/>
</svg>
