<svg width="88" height="88" viewBox="0 0 88 88" fill="none" xmlns="http://www.w3.org/2000/svg">
<path d="M62.3322 47.6667V29.3333C62.3322 19.2081 54.1241 11 43.9989 11C33.8736 11 25.6655 19.2081 25.6655 29.3333V47.6667C25.6655 54.5205 25.6655 57.9474 27.1392 60.5C28.1047 62.1722 29.4933 63.5608 31.1655 64.5263C33.7181 66 37.145 66 43.9989 66C50.8527 66 54.2796 66 56.8322 64.5263C58.5044 63.5608 59.893 62.1722 60.8585 60.5C62.3322 57.9474 62.3322 54.5205 62.3322 47.6667Z" stroke="#393939" stroke-width="4" stroke-linejoin="round"/>
<path d="M65.9988 76.9998C65.9988 72.9497 69.282 69.6665 73.3321 69.6665C77.3822 69.6665 80.6654 72.9497 80.6654 76.9998" stroke="#393939" stroke-width="4" stroke-linecap="round" stroke-linejoin="round"/>
<path d="M7.33215 76.9998C7.33215 72.9497 10.6154 69.6665 14.6655 69.6665C18.7156 69.6665 21.9988 72.9497 21.9988 76.9998" stroke="#393939" stroke-width="4" stroke-linecap="round" stroke-linejoin="round"/>
<path d="M51.3028 27.5H51.3354" stroke="#393939" stroke-width="4" stroke-linecap="round" stroke-linejoin="round"/>
<path d="M36.6655 27.5H36.6981" stroke="#393939" stroke-width="4" stroke-linecap="round" stroke-linejoin="round"/>
<path d="M73.3322 69.6666V54.9999C73.3322 48.086 73.3322 44.629 71.1843 42.4811C69.0364 40.3333 65.5795 40.3333 58.6655 40.3333H29.3322C22.4183 40.3333 18.9613 40.3333 16.8134 42.4811C14.6655 44.629 14.6655 48.086 14.6655 54.9999V69.6666" stroke="#393939" stroke-width="4" stroke-linecap="round" stroke-linejoin="round"/>
</svg>
