<svg width="88" height="88" viewBox="0 0 88 88" fill="none" xmlns="http://www.w3.org/2000/svg">
<path d="M62.3334 25.6666V40.3333C62.3334 50.4585 54.1252 58.6666 44 58.6666C33.8748 58.6666 25.6667 50.4585 25.6667 40.3333V25.6666C25.6667 15.5414 33.8748 7.33325 44 7.33325C54.1252 7.33325 62.3334 15.5414 62.3334 25.6666Z" stroke="#393939" stroke-width="4"/>
<path d="M72.9584 30.0415H60.0834M72.9584 47.2082H60.0834" stroke="#393939" stroke-width="4" stroke-linecap="round"/>
<path d="M73.3334 40.3333C73.3334 56.5336 60.2004 69.6666 44 69.6666M44 69.6666C27.7997 69.6666 14.6667 56.5336 14.6667 40.3333M44 69.6666V80.6666M44 80.6666H55M44 80.6666H33" stroke="#393939" stroke-width="4" stroke-linecap="round"/>
</svg>
