<svg width="88" height="88" viewBox="0 0 88 88" fill="none" xmlns="http://www.w3.org/2000/svg">
<path d="M33 53.1668H47.6667M33 34.8335H62.3333" stroke="#1A1E1D" stroke-width="4" stroke-linecap="round"/>
<path d="M14.6666 36.6668C14.6666 22.839 14.6666 15.925 18.9624 11.6293C23.2582 7.3335 30.1721 7.3335 44 7.3335H49.5C63.3278 7.3335 70.2418 7.3335 74.5375 11.6293C78.8333 15.925 78.8333 22.839 78.8333 36.6668V51.3335C78.8333 65.1614 78.8333 72.0753 74.5375 76.3711C70.2418 80.6668 63.3278 80.6668 49.5 80.6668H44C30.1721 80.6668 23.2582 80.6668 18.9624 76.3711C14.6666 72.0753 14.6666 65.1614 14.6666 51.3335V36.6668Z" stroke="#1A1E1D" stroke-width="4"/>
<path d="M18.3333 22L9.16663 22M18.3333 44L9.16663 44M18.3333 66H9.16663" stroke="#1A1E1D" stroke-width="4" stroke-linecap="round" stroke-linejoin="round"/>
</svg>
