<svg width="88" height="88" viewBox="0 0 88 88" fill="none" xmlns="http://www.w3.org/2000/svg">
<path d="M29.3334 22C23.3668 22.1091 19.9387 22.6167 17.6201 24.9787C14.6667 27.9873 14.6667 32.8295 14.6667 42.5139V60.1229C14.6667 69.8073 14.6667 74.6495 17.6201 77.6581C20.5734 80.6667 25.3268 80.6667 34.8334 80.6667C44.3401 80.6667 49.0934 80.6667 52.0467 77.6581C55.0001 74.6495 55.0001 69.8073 55.0001 60.1229V49.4844" stroke="#1A1E1D" stroke-width="4" stroke-linecap="round"/>
<path d="M34.8333 69.6665H34.8662" stroke="#1A1E1D" stroke-width="4" stroke-linecap="round" stroke-linejoin="round"/>
<path d="M36.6667 14.1065C41.9322 9.82289 48.2207 7.3335 54.9752 7.3335C61.7509 7.3335 68.0578 9.83862 73.3334 14.1471M64.9654 25.6668C61.9583 23.7916 58.5655 22.7366 54.9752 22.7366C51.4029 22.7366 48.0261 23.7811 45.0303 25.6386" stroke="#1A1E1D" stroke-width="4" stroke-linecap="round"/>
<path d="M55 36.6665H55.0233" stroke="#1A1E1D" stroke-width="4" stroke-linecap="round" stroke-linejoin="round"/>
</svg>
