<svg width="88" height="88" viewBox="0 0 88 88" fill="none" xmlns="http://www.w3.org/2000/svg">
<path d="M9.1665 43.9998C9.1665 27.5792 9.1665 19.369 14.2677 14.2677C19.369 9.1665 27.5792 9.1665 43.9998 9.1665C60.4204 9.1665 68.6307 9.1665 73.7319 14.2677C78.8332 19.369 78.8332 27.5792 78.8332 43.9998C78.8332 60.4204 78.8332 68.6307 73.7319 73.7319C68.6307 78.8332 60.4204 78.8332 43.9998 78.8332C27.5792 78.8332 19.369 78.8332 14.2677 73.7319C9.1665 68.6307 9.1665 60.4204 9.1665 43.9998Z" stroke="#1A1E1D" stroke-width="4"/>
<path d="M51.8158 58.6668L60.5 51.3335H29.2368M60.5 36.6668H27.5L37.9211 29.3335" stroke="#1A1E1D" stroke-width="4" stroke-linecap="round" stroke-linejoin="round"/>
</svg>
