<svg width="88" height="88" viewBox="0 0 88 88" fill="none" xmlns="http://www.w3.org/2000/svg">
<path d="M20.5333 80.6668C20.5333 77.4268 17.9067 74.8002 14.6667 74.8002M32.2667 80.6668C32.2667 70.9466 24.3869 63.0668 14.6667 63.0668M44 80.6668C44 64.4665 30.867 51.3335 14.6667 51.3335" stroke="#1A1E1D" stroke-width="4" stroke-linecap="round"/>
<path d="M18.333 40.3335V34.8336C18.333 22.7794 18.333 16.7523 21.6622 12.6957C22.2717 11.9531 22.9526 11.2722 23.6952 10.6627C27.7518 7.3335 33.7789 7.3335 45.8331 7.3335C57.8873 7.3335 63.9145 7.3335 67.9711 10.6627C68.7137 11.2722 69.3946 11.9531 70.004 12.6957C73.3333 16.7523 73.3333 22.7794 73.3333 34.8336V62.3335C73.3333 65.741 73.3333 67.4447 73.0514 68.8615C71.8941 74.6796 67.346 79.2277 61.5279 80.385C60.1111 80.6668 58.4074 80.6668 54.9999 80.6668" stroke="#1A1E1D" stroke-width="4" stroke-linecap="round"/>
</svg>
