<svg width="88" height="88" viewBox="0 0 88 88" fill="none" xmlns="http://www.w3.org/2000/svg">
<path d="M56.8334 21.9994V20.1661C56.8334 15.0164 56.8334 12.4416 55.5975 10.5919C55.0624 9.79119 54.3749 9.10368 53.5742 8.56865C51.7246 7.33276 49.1497 7.33276 44 7.33276C38.8503 7.33276 36.2755 7.33276 34.4258 8.56865C33.6251 9.10368 32.9376 9.79119 32.4026 10.5919C31.1667 12.4416 31.1667 15.0164 31.1667 20.1661V21.9994" stroke="#393939" stroke-width="4"/>
<path d="M22.0164 26.0815C21.7697 22.8894 24.3451 20.166 27.6105 20.166H60.3895C63.6549 20.166 66.2303 22.8894 65.9836 26.0815L65.3097 34.8032C64.8252 41.073 62.7042 47.1152 59.1505 52.3495L56.9477 55.5942C54.8674 58.6583 51.3616 60.4993 47.6071 60.4993H40.3929C36.6384 60.4993 33.1326 58.6583 31.0523 55.5942L28.8495 52.3495C25.2958 47.1152 23.1748 41.073 22.6903 34.8032L22.0164 26.0815Z" stroke="#393939" stroke-width="4"/>
<path d="M44 62.3325V80.6659" stroke="#393939" stroke-width="4" stroke-linecap="round" stroke-linejoin="round"/>
<path d="M40.3333 31.166H47.6666" stroke="#393939" stroke-width="4" stroke-linecap="round" stroke-linejoin="round"/>
</svg>
