<svg width="88" height="88" viewBox="0 0 88 88" fill="none" xmlns="http://www.w3.org/2000/svg">
<path d="M29.3333 45.3698C33.5456 42.1846 38.5764 40.3335 43.98 40.3335C49.4006 40.3335 54.4461 42.1963 58.6666 45.4M51.9722 53.9658C49.5665 52.5715 46.8522 51.787 43.98 51.787C41.1222 51.787 38.4208 52.5636 36.0241 53.9449" stroke="#393939" stroke-width="4" stroke-linecap="round"/>
<path d="M44 64.167H44.0233" stroke="#393939" stroke-width="4" stroke-linecap="round" stroke-linejoin="round"/>
<path d="M25.6665 22H25.6898" stroke="#393939" stroke-width="4" stroke-linecap="round" stroke-linejoin="round"/>
<path d="M40.3333 22H40.3565" stroke="#393939" stroke-width="4" stroke-linecap="round" stroke-linejoin="round"/>
<path d="M9.1665 44.0003C9.1665 27.5797 9.1665 19.3694 14.2677 14.2682C19.369 9.16699 27.5792 9.16699 43.9998 9.16699C60.4204 9.16699 68.6307 9.16699 73.7319 14.2682C78.8332 19.3694 78.8332 27.5797 78.8332 44.0003C78.8332 60.4209 78.8332 68.6312 73.7319 73.7324C68.6307 78.8337 60.4204 78.8337 43.9998 78.8337C27.5792 78.8337 19.369 78.8337 14.2677 73.7324C9.1665 68.6312 9.1665 60.4209 9.1665 44.0003Z" stroke="#393939" stroke-width="4"/>
</svg>
