<svg width="38" height="38" viewBox="0 0 38 38" fill="none" xmlns="http://www.w3.org/2000/svg">
<path d="M11.0807 7.12517C8.45738 7.12517 6.33073 9.25182 6.33073 11.8752C6.33073 12.7756 6.58124 13.6174 7.01637 14.3349C4.82224 14.7545 3.16406 16.6837 3.16406 19.0002C3.16406 21.3166 4.82224 23.2458 7.01637 23.6655M11.0807 7.12517C11.0807 4.93905 12.8529 3.16684 15.0391 3.16684C17.2252 3.16684 18.9974 4.93905 18.9974 7.12517V30.8752C18.9974 33.0613 17.2252 34.8335 15.0391 34.8335C12.8529 34.8335 11.0807 33.0613 11.0807 30.8752C8.45738 30.8752 6.33073 28.7485 6.33073 26.1252C6.33073 25.2248 6.58124 24.3829 7.01637 23.6655M11.0807 7.12517C11.0807 8.4202 11.7026 9.56997 12.6641 10.2921M7.01637 23.6655C7.58074 22.7349 8.45568 22.0137 9.4974 21.6455" stroke="#030079" stroke-width="2.375" stroke-linecap="round" stroke-linejoin="round"/>
<path d="M26.9154 30.8752C29.5387 30.8752 31.6654 28.7485 31.6654 26.1252C31.6654 25.2248 31.4149 24.3829 30.9797 23.6655C33.1739 23.2458 34.832 21.3166 34.832 19.0002C34.832 16.6837 33.1739 14.7545 30.9797 14.3349M26.9154 30.8752C26.9154 33.0613 25.1432 34.8335 22.957 34.8335C20.7709 34.8335 18.9987 33.0613 18.9987 30.8752L18.9987 7.12516C18.9987 4.93904 20.7709 3.16683 22.957 3.16683C25.1432 3.16683 26.9154 4.93904 26.9154 7.12516C29.5387 7.12516 31.6654 9.25181 31.6654 11.8752C31.6654 12.7755 31.4149 13.6174 30.9797 14.3349M26.9154 30.8752C26.9154 29.5801 26.2935 28.4304 25.332 27.7082M30.9797 14.3349C30.4154 15.2654 29.5404 15.9867 28.4987 16.3549" stroke="#030079" stroke-width="2.375" stroke-linecap="round" stroke-linejoin="round"/>
</svg>
