<svg width="38" height="38" viewBox="0 0 38 38" fill="none" xmlns="http://www.w3.org/2000/svg">
<path d="M3.16406 34.8332H34.8307" stroke="#6A1700" stroke-width="2.375" stroke-linecap="round"/>
<path d="M28.4974 14.2498H22.1641C18.2342 14.2498 17.4141 15.07 17.4141 18.9998V34.8332H33.2474V18.9998C33.2474 15.07 32.4272 14.2498 28.4974 14.2498Z" stroke="#6A1700" stroke-width="2.375" stroke-linejoin="round"/>
<path d="M23.748 34.8332H4.74805V7.9165C4.74805 3.98667 5.56821 3.1665 9.49805 3.1665H18.998C22.9279 3.1665 23.748 3.98667 23.748 7.9165V14.2498" stroke="#6A1700" stroke-width="2.375" stroke-linejoin="round"/>
<path d="M4.74805 9.49985H9.49805M4.74805 15.8332H9.49805M4.74805 22.1665H9.49805" stroke="#6A1700" stroke-width="2.375" stroke-linecap="round"/>
<path d="M23.748 20.5832H26.9147M23.748 25.3332H26.9147" stroke="#6A1700" stroke-width="2.375" stroke-linecap="round"/>
<path d="M25.332 34.8332L25.332 30.0832" stroke="#6A1700" stroke-width="2.375" stroke-linecap="round" stroke-linejoin="round"/>
</svg>
