<svg width="16" height="16" viewBox="0 0 16 16" fill="none" xmlns="http://www.w3.org/2000/svg">
<path d="M7.89532 0.575806C6.47129 0.575806 5.07924 0.998078 3.89521 1.78922C2.71118 2.58037 1.78833 3.70486 1.24338 5.02048C0.698432 6.33611 0.555848 7.78379 0.833662 9.18046C1.11148 10.5771 1.79721 11.86 2.80415 12.867C3.81108 13.8739 5.094 14.5596 6.49066 14.8375C7.88733 15.1153 9.33501 14.9727 10.6506 14.4277C11.9663 13.8828 13.0908 12.9599 13.8819 11.7759C14.673 10.5919 15.0953 9.19983 15.0953 7.77581C15.0953 5.86625 14.3367 4.0349 12.9865 2.68464C11.6362 1.33438 9.80487 0.575806 7.89532 0.575806ZM11.2793 5.74381L7.72732 10.6718C7.62151 10.8146 7.46711 10.9138 7.29321 10.9507C7.11932 10.9875 6.93795 10.9595 6.78332 10.8718L4.74332 9.67981C4.57782 9.58008 4.45872 9.4187 4.41221 9.23117C4.3657 9.04363 4.39559 8.8453 4.49532 8.67981C4.59504 8.51431 4.75642 8.39521 4.94395 8.3487C5.13149 8.30219 5.32982 8.33208 5.49532 8.43181L6.94332 9.29581L10.1433 4.90381C10.2621 4.78483 10.4187 4.71115 10.5861 4.69556C10.7535 4.67997 10.9211 4.72344 11.0598 4.81844C11.1985 4.91343 11.2995 5.05397 11.3455 5.21568C11.3914 5.37739 11.3793 5.55007 11.3113 5.70381L11.2793 5.74381Z" fill="#1BB42D"/>
</svg>
