<svg width="38" height="38" viewBox="0 0 38 38" fill="none" xmlns="http://www.w3.org/2000/svg">
<path d="M6.33203 19.0002C6.33203 13.029 6.33203 10.0435 8.18702 8.18849C10.042 6.3335 13.0276 6.3335 18.9987 6.3335C24.9698 6.3335 27.9554 6.3335 29.8104 8.18849C31.6654 10.0435 31.6654 13.029 31.6654 19.0002C31.6654 24.9713 31.6654 27.9568 29.8104 29.8118C27.9554 31.6668 24.9698 31.6668 18.9987 31.6668C13.0276 31.6668 10.042 31.6668 8.18702 29.8118C6.33203 27.9568 6.33203 24.9713 6.33203 19.0002Z" stroke="#00858F" stroke-width="2.375" stroke-linejoin="round"/>
<path d="M12.2414 25.7575C13.4008 26.9168 15.2667 26.9168 18.9987 26.9168C20.2492 26.9168 21.2902 26.9168 22.1654 26.8732L26.8717 22.1668C26.9154 21.2917 26.9154 20.2507 26.9154 19.0002C26.9154 15.2682 26.9154 13.4022 25.756 12.2429C24.5966 11.0835 22.7306 11.0835 18.9987 11.0835C15.2667 11.0835 13.4008 11.0835 12.2414 12.2429C11.082 13.4022 11.082 15.2682 11.082 19.0002C11.082 22.7321 11.082 24.5981 12.2414 25.7575Z" stroke="#00858F" stroke-width="2.375" stroke-linejoin="round"/>
<path d="M12.6641 3.16681V6.33348M25.3307 3.16681V6.33348M18.9974 3.16681V6.33348M12.6641 31.6668V34.8335M18.9974 31.6668V34.8335M25.3307 31.6668V34.8335M34.8307 25.3335H31.6641M6.33073 12.6668H3.16406M6.33073 25.3335H3.16406M6.33073 19.0001H3.16406M34.8307 12.6668H31.6641M34.8307 19.0001H31.6641" stroke="#00858F" stroke-width="2.375" stroke-linecap="round" stroke-linejoin="round"/>
</svg>
