<svg width="32" height="32" viewBox="0 0 32 32" fill="none" xmlns="http://www.w3.org/2000/svg">
<path d="M3.33594 15.9993C3.33594 10.0282 3.33594 7.04266 5.19093 5.18767C7.04592 3.33268 10.0315 3.33268 16.0026 3.33268C21.9737 3.33268 24.9593 3.33268 26.8143 5.18767C28.6693 7.04266 28.6693 10.0282 28.6693 15.9993C28.6693 21.9705 28.6693 24.956 26.8143 26.811C24.9593 28.666 21.9737 28.666 16.0026 28.666C10.0315 28.666 7.04592 28.666 5.19093 26.811C3.33594 24.956 3.33594 21.9705 3.33594 15.9993Z" stroke="#141B34" stroke-width="2"/>
<path d="M10.668 21.666C10.1157 21.666 9.66797 22.1137 9.66797 22.666C9.66797 23.2183 10.1157 23.666 10.668 23.666L10.668 22.666L10.668 21.666ZM21.3346 23.666C21.8869 23.666 22.3346 23.2183 22.3346 22.666C22.3346 22.1137 21.8869 21.666 21.3346 21.666V22.666V23.666ZM20.0535 16.4498C20.4374 16.0528 20.4268 15.4197 20.0298 15.0358C19.6328 14.6518 18.9997 14.6624 18.6158 15.0594L19.3346 15.7546L20.0535 16.4498ZM17.7691 17.3735L18.4879 18.0687H18.4879L17.7691 17.3735ZM14.2335 17.3735L13.5147 18.0686L13.5147 18.0686L14.2335 17.3735ZM13.3868 15.0594C13.0029 14.6624 12.3698 14.6518 11.9728 15.0358C11.5758 15.4197 11.5652 16.0528 11.9491 16.4498L12.668 15.7546L13.3868 15.0594ZM17.0013 9.33268C17.0013 8.7804 16.5536 8.33268 16.0013 8.33268C15.449 8.33268 15.0013 8.7804 15.0013 9.33268L16.0013 9.33268L17.0013 9.33268ZM10.668 22.666L10.668 23.666L21.3346 23.666V22.666V21.666L10.668 21.666L10.668 22.666ZM19.3346 15.7546L18.6158 15.0594L17.0502 16.6783L17.7691 17.3735L18.4879 18.0687L20.0535 16.4498L19.3346 15.7546ZM14.2335 17.3735L14.9524 16.6783L13.3868 15.0594L12.668 15.7546L11.9491 16.4498L13.5147 18.0686L14.2335 17.3735ZM17.7691 17.3735L17.0502 16.6783C16.6137 17.1297 16.3552 17.3939 16.1475 17.5578C15.9613 17.7046 15.9432 17.666 16.0013 17.666L16.0013 18.666V19.666C16.5772 19.666 17.0262 19.412 17.3862 19.128C17.7246 18.861 18.0911 18.479 18.4879 18.0687L17.7691 17.3735ZM14.2335 17.3735L13.5147 18.0686C13.9115 18.479 14.278 18.861 14.6164 19.128C14.9764 19.412 15.4254 19.666 16.0013 19.666V18.666L16.0013 17.666C16.0594 17.666 16.0413 17.7046 15.8551 17.5578C15.6474 17.3939 15.3889 17.1297 14.9524 16.6783L14.2335 17.3735ZM16.0013 18.666H17.0013L17.0013 9.33268L16.0013 9.33268L15.0013 9.33268L15.0013 18.666H16.0013Z" fill="#141B34"/>
</svg>
