<svg width="28" height="28" viewBox="0 0 28 28" fill="none" xmlns="http://www.w3.org/2000/svg">
<path d="M13.9987 11.1066C13.4265 11.1066 12.8671 11.2763 12.3912 11.5942C11.9154 11.9121 11.5446 12.364 11.3256 12.8927C11.1066 13.4214 11.0493 14.0031 11.161 14.5644C11.2726 15.1256 11.5482 15.6412 11.9528 16.0458C12.3574 16.4505 12.873 16.726 13.4342 16.8377C13.9955 16.9493 14.5772 16.892 15.1059 16.673C15.6346 16.454 16.0865 16.0832 16.4044 15.6074C16.7223 15.1316 16.892 14.5722 16.892 13.9999C16.892 13.62 16.8172 13.2437 16.6718 12.8927C16.5264 12.5417 16.3133 12.2227 16.0446 11.954C15.7759 11.6854 15.457 11.4722 15.1059 11.3268C14.7549 11.1814 14.3787 11.1066 13.9987 11.1066ZM25.5837 8.24825C25.5776 7.3473 25.4117 6.45459 25.0937 5.61159C24.8595 4.99472 24.4972 4.43453 24.0306 3.96797C23.5641 3.50141 23.0039 3.13909 22.387 2.90492C21.544 2.58696 20.6513 2.42106 19.7504 2.41492C18.2454 2.33325 17.802 2.33325 13.9987 2.33325C10.1954 2.33325 9.75203 2.33325 8.24703 2.41492C7.34608 2.42106 6.45336 2.58696 5.61036 2.90492C4.9935 3.13909 4.43331 3.50141 3.96675 3.96797C3.50019 4.43453 3.13787 4.99472 2.9037 5.61159C2.58574 6.45459 2.41984 7.3473 2.4137 8.24825C2.33203 9.75325 2.33203 10.1966 2.33203 13.9999C2.33203 17.8033 2.33203 18.2466 2.4137 19.7516C2.42626 20.6557 2.59193 21.5512 2.9037 22.3999C3.13683 23.014 3.49885 23.5709 3.96536 24.0333C4.42992 24.5026 4.99132 24.8649 5.61036 25.0949C6.45336 25.4129 7.34608 25.5788 8.24703 25.5849C9.75203 25.6666 10.1954 25.6666 13.9987 25.6666C17.802 25.6666 18.2454 25.6666 19.7504 25.5849C20.6513 25.5788 21.544 25.4129 22.387 25.0949C23.0061 24.8649 23.5675 24.5026 24.032 24.0333C24.4986 23.5709 24.8606 23.014 25.0937 22.3999C25.4114 21.5528 25.5772 20.6563 25.5837 19.7516C25.6654 18.2466 25.6654 17.8033 25.6654 13.9999C25.6654 10.1966 25.6654 9.75325 25.5837 8.24825ZM22.6204 17.5816C22.5829 18.3015 22.4293 19.0107 22.1654 19.6816C21.9389 20.2412 21.6022 20.7496 21.1753 21.1765C20.7484 21.6034 20.24 21.9401 19.6804 22.1666C19.0031 22.4158 18.29 22.5537 17.5687 22.5749C16.647 22.5749 16.402 22.5749 13.9987 22.5749C11.5954 22.5749 11.3504 22.5749 10.4287 22.5749C9.70738 22.5537 8.99427 22.4158 8.31703 22.1666C7.73849 21.9516 7.21602 21.6086 6.7887 21.1633C6.36598 20.7447 6.03952 20.2391 5.83203 19.6816C5.58185 19.0051 5.44774 18.2911 5.43536 17.5699C5.43536 16.6483 5.43536 16.4033 5.43536 13.9999C5.43536 11.5966 5.43536 11.3516 5.43536 10.4299C5.44774 9.70872 5.58185 8.99478 5.83203 8.31825C6.04703 7.73971 6.39002 7.21724 6.83536 6.78992C7.25575 6.36948 7.76084 6.04336 8.31703 5.83325C8.99427 5.58406 9.70738 5.44616 10.4287 5.42492C11.3504 5.42492 11.5954 5.42492 13.9987 5.42492C16.402 5.42492 16.647 5.42492 17.5687 5.42492C18.29 5.44616 19.0031 5.58406 19.6804 5.83325C20.2589 6.04825 20.7814 6.39124 21.2087 6.83659C21.6314 7.25513 21.9579 7.76074 22.1654 8.31825C22.4146 8.99549 22.5525 9.7086 22.5737 10.4299C22.5737 11.3516 22.5737 11.5966 22.5737 13.9999C22.5737 16.4033 22.6554 16.6483 22.6204 17.5699V17.5816ZM20.7537 8.90159C20.6148 8.52473 20.3958 8.1825 20.1118 7.8985C19.8278 7.6145 19.4855 7.39549 19.1087 7.25659C18.5912 7.07722 18.0463 6.99034 17.4987 6.99992C16.5887 6.99992 16.332 6.99992 13.9987 6.99992C11.6654 6.99992 11.4087 6.99992 10.4987 6.99992C9.94834 7.0053 9.40328 7.10799 8.8887 7.30325C8.51762 7.43585 8.17901 7.64592 7.89538 7.91949C7.61175 8.19306 7.3896 8.52386 7.2437 8.88992C7.07427 9.40951 6.9915 9.95345 6.9987 10.4999C6.9987 11.4099 6.9987 11.6666 6.9987 13.9999C6.9987 16.3333 6.9987 16.5899 6.9987 17.4999C7.01026 18.0496 7.11276 18.5937 7.30203 19.1099C7.44094 19.4868 7.65995 19.829 7.94395 20.113C8.22795 20.397 8.57018 20.616 8.94703 20.7549C9.44481 20.938 9.96863 21.0404 10.4987 21.0583C11.4087 21.0583 11.6654 21.0583 13.9987 21.0583C16.332 21.0583 16.5887 21.0583 17.4987 21.0583C18.0491 21.0529 18.5941 20.9502 19.1087 20.7549C19.4855 20.616 19.8278 20.397 20.1118 20.113C20.3958 19.829 20.6148 19.4868 20.7537 19.1099C20.949 18.5953 21.0517 18.0503 21.057 17.4999C21.057 16.5899 21.057 16.3333 21.057 13.9999C21.057 11.6666 21.057 11.4099 21.057 10.4999C21.0574 9.94902 20.9545 9.40293 20.7537 8.88992V8.90159ZM13.9987 18.4566C13.414 18.4566 12.835 18.3412 12.295 18.1171C11.7549 17.893 11.2644 17.5645 10.8515 17.1506C10.4386 16.7366 10.1114 16.2452 9.8887 15.7045C9.66601 15.1639 9.55216 14.5846 9.5537 13.9999C9.5537 13.118 9.81538 12.2559 10.3056 11.5227C10.7958 10.7896 11.4925 10.2184 12.3076 9.88139C13.1226 9.54442 14.0193 9.45685 14.8841 9.62976C15.7489 9.80267 16.543 10.2283 17.1658 10.8527C17.7886 11.4772 18.2122 12.2724 18.3828 13.1376C18.5535 14.0029 18.4635 14.8994 18.1244 15.7135C17.7853 16.5277 17.2123 17.2229 16.4779 17.7112C15.7434 18.1995 14.8806 18.4589 13.9987 18.4566ZM18.6654 10.4183C18.4075 10.391 18.1688 10.2692 17.9953 10.0764C17.8219 9.88359 17.7259 9.63343 17.7259 9.37409C17.7259 9.11474 17.8219 8.86458 17.9953 8.67179C18.1688 8.47899 18.4075 8.35722 18.6654 8.32992C18.9233 8.35722 19.1619 8.47899 19.3354 8.67179C19.5089 8.86458 19.6048 9.11474 19.6048 9.37409C19.6048 9.63343 19.5089 9.88359 19.3354 10.0764C19.1619 10.2692 18.9233 10.391 18.6654 10.4183Z" fill="black"/>
</svg>
