<svg width="28" height="28" viewBox="0 0 28 28" fill="none" xmlns="http://www.w3.org/2000/svg">
<path d="M23.8826 2.33342H4.1193C3.89714 2.33033 3.67655 2.37104 3.47012 2.45321C3.2637 2.53539 3.07548 2.65742 2.91623 2.81235C2.75697 2.96727 2.62979 3.15205 2.54195 3.35613C2.45412 3.56021 2.40734 3.77959 2.4043 4.00175V23.9984C2.40734 24.2206 2.45412 24.44 2.54195 24.644C2.62979 24.8481 2.75697 25.0329 2.91623 25.1878C3.07548 25.3427 3.2637 25.4648 3.47012 25.5469C3.67655 25.6291 3.89714 25.6698 4.1193 25.6667H23.8826C24.1048 25.6698 24.3254 25.6291 24.5318 25.5469C24.7382 25.4648 24.9264 25.3427 25.0857 25.1878C25.245 25.0329 25.3721 24.8481 25.46 24.644C25.5478 24.44 25.5946 24.2206 25.5976 23.9984V4.00175C25.5946 3.77959 25.5478 3.56021 25.46 3.35613C25.3721 3.15205 25.245 2.96727 25.0857 2.81235C24.9264 2.65742 24.7382 2.53539 24.5318 2.45321C24.3254 2.37104 24.1048 2.33033 23.8826 2.33342ZM9.4393 21.8634H5.9393V11.3634H9.4393V21.8634ZM7.6893 9.89341C7.2066 9.89341 6.74368 9.70167 6.40236 9.36035C6.06105 9.01903 5.8693 8.55611 5.8693 8.07341C5.8693 7.59072 6.06105 7.1278 6.40236 6.78648C6.74368 6.44516 7.2066 6.25341 7.6893 6.25341C7.94561 6.22435 8.20517 6.24974 8.45098 6.32795C8.6968 6.40615 8.92333 6.53539 9.11573 6.7072C9.30813 6.87902 9.46208 7.08954 9.56748 7.32498C9.67288 7.56041 9.72737 7.81546 9.72737 8.07341C9.72737 8.33137 9.67288 8.58641 9.56748 8.82185C9.46208 9.05729 9.30813 9.26781 9.11573 9.43963C8.92333 9.61144 8.6968 9.74068 8.45098 9.81888C8.20517 9.89709 7.94561 9.92248 7.6893 9.89341ZM22.0626 21.8634H18.5626V16.2284C18.5626 14.8167 18.061 13.8951 16.7893 13.8951C16.3957 13.898 16.0125 14.0214 15.6913 14.2488C15.37 14.4762 15.1262 14.7965 14.9926 15.1667C14.9013 15.441 14.8618 15.7298 14.876 16.0184V21.8517H11.376C11.376 21.8517 11.376 12.3084 11.376 11.3517H14.876V12.8334C15.1939 12.2817 15.6564 11.8272 16.2135 11.5188C16.7706 11.2104 17.4013 11.0599 18.0376 11.0834C20.371 11.0834 22.0626 12.5884 22.0626 15.8201V21.8634Z" fill="white"/>
</svg>
