<svg width="32" height="32" viewBox="0 0 32 32" fill="none" xmlns="http://www.w3.org/2000/svg">
<path d="M22.6667 20V22.6667M22.6786 25.3333H22.6667M29.3333 22.6667C29.3333 26.3486 26.3486 29.3333 22.6667 29.3333C18.9848 29.3333 16 26.3486 16 22.6667C16 18.9848 18.9848 16 22.6667 16C26.3486 16 29.3333 18.9848 29.3333 22.6667Z" stroke="url(#paint0_linear_2367_8061)" stroke-width="2" stroke-linecap="round"/>
<path d="M20.0389 12.3263C19.231 10.9353 17.7251 10 16.0007 10C13.4233 10 11.334 12.0893 11.334 14.6667C11.334 16.0875 11.969 17.3601 12.9707 18.216" stroke="url(#paint1_linear_2367_8061)" stroke-width="2" stroke-linecap="round"/>
<path d="M18.5844 2.66663V3.66663V2.66663ZM25.1572 6.44825L24.2922 6.95007L25.1572 6.44825ZM6.84545 6.44824L7.71042 6.95006V6.95006L6.84545 6.44824ZM13.4182 2.66663V1.66663V2.66663ZM4.28053 18.4639L3.41555 18.9658L4.28053 18.4639ZM4.28053 10.8693L3.41556 10.3675H3.41556L4.28053 10.8693ZM2.66797 14.6666H3.66797H2.66797ZM6.84544 22.885L5.98047 23.3868H5.98047L6.84544 22.885ZM9.33206 26.1601L9.83076 25.2933L9.33206 26.1601ZM27.7221 10.8693L26.8571 11.3711V11.3711L27.7221 10.8693ZM28.3211 14.4426C28.3872 14.9909 28.8853 15.3818 29.4336 15.3158C29.9819 15.2497 30.3729 14.7516 30.3068 14.2033L29.314 14.3229L28.3211 14.4426ZM12.7735 27.666C13.3258 27.6676 13.7748 27.2212 13.7764 26.669C13.778 26.1167 13.3316 25.6677 12.7794 25.666L12.7764 26.666L12.7735 27.666ZM6.84544 22.885L7.71042 22.3832L5.1455 17.9621L4.28053 18.4639L3.41555 18.9658L5.98047 23.3868L6.84544 22.885ZM4.28053 10.8693L5.1455 11.3711L7.71042 6.95006L6.84545 6.44824L5.98048 5.94642L3.41556 10.3675L4.28053 10.8693ZM13.4182 2.66663V3.66663L18.5844 3.66663V2.66663L18.5844 1.66663L13.4182 1.66663V2.66663ZM25.1572 6.44825L24.2922 6.95007L26.8571 11.3711L27.7221 10.8693L28.5871 10.3675L26.0221 5.94643L25.1572 6.44825ZM18.5844 2.66663V3.66663C19.6724 3.66663 20.4167 3.66774 21.0009 3.72515C21.5634 3.78043 21.8975 3.88214 22.1719 4.03996L22.6705 3.17319L23.1692 2.30641C22.5631 1.95768 21.9228 1.80611 21.1965 1.73474C20.4921 1.66551 19.6336 1.66663 18.5844 1.66663L18.5844 2.66663ZM25.1572 6.44825L26.0221 5.94643C25.4965 5.04041 25.0672 4.2982 24.6541 3.72431C24.228 3.13252 23.7755 2.65521 23.1692 2.30641L22.6705 3.17319L22.1719 4.03996C22.4461 4.19772 22.7014 4.43511 23.0309 4.8928C23.3733 5.36838 23.747 6.01042 24.2922 6.95007L25.1572 6.44825ZM6.84545 6.44824L7.71042 6.95006C8.25556 6.01042 8.62934 5.36838 8.97171 4.89279C9.30119 4.43511 9.55655 4.19772 9.83076 4.03996L9.33206 3.17319L8.83336 2.30641C8.22712 2.65521 7.77457 3.13252 7.34855 3.72431C6.93542 4.29819 6.50611 5.0404 5.98048 5.94642L6.84545 6.44824ZM13.4182 2.66663V1.66663C12.369 1.66663 11.5105 1.66551 10.8061 1.73474C10.0799 1.80611 9.43949 1.95768 8.83336 2.30641L9.33206 3.17319L9.83076 4.03996C10.1051 3.88214 10.4392 3.78043 11.0017 3.72515C11.5859 3.66774 12.3302 3.66663 13.4182 3.66663V2.66663ZM4.28053 18.4639L5.1455 17.9621C4.59818 17.0187 4.22485 16.373 3.98126 15.8378C3.74682 15.3227 3.66797 14.9827 3.66797 14.6666H2.66797H1.66797C1.66797 15.3683 1.85788 16.0005 2.16095 16.6664C2.45488 17.3121 2.88783 18.0562 3.41555 18.9658L4.28053 18.4639ZM4.28053 10.8693L3.41556 10.3675C2.88783 11.2771 2.45489 12.0211 2.16095 12.6669C1.85788 13.3328 1.66797 13.9649 1.66797 14.6666H2.66797H3.66797C3.66797 14.3505 3.74682 14.0105 3.98127 13.4954C4.22485 12.9603 4.59818 12.3145 5.1455 11.3711L4.28053 10.8693ZM6.84544 22.885L5.98047 23.3868C6.50611 24.2928 6.93542 25.0351 7.34855 25.6089C7.77457 26.2007 8.22712 26.678 8.83336 27.0268L9.33206 26.1601L9.83076 25.2933C9.55655 25.1355 9.30119 24.8981 8.97171 24.4405C8.62934 23.9649 8.25556 23.3228 7.71042 22.3832L6.84544 22.885ZM27.7221 10.8693L26.8571 11.3711C27.3407 12.2046 27.69 12.8079 27.9356 13.3134C28.1775 13.8114 28.2859 14.1504 28.3211 14.4426L29.314 14.3229L30.3068 14.2033C30.234 13.5997 30.0232 13.0335 29.7345 12.4394C29.4495 11.8528 29.0568 11.1772 28.5871 10.3675L27.7221 10.8693ZM12.7764 26.666L12.7794 25.666C10.9979 25.6608 10.3464 25.59 9.83076 25.2933L9.33206 26.1601L8.83336 27.0268C9.89277 27.6364 11.1174 27.6612 12.7735 27.666L12.7764 26.666Z" fill="url(#paint2_linear_2367_8061)"/>
<defs>
<linearGradient id="paint0_linear_2367_8061" x1="29.3333" y1="22.6667" x2="16" y2="22.6667" gradientUnits="userSpaceOnUse">
<stop stop-color="#EF536B"/>
<stop offset="1" stop-color="#F79355"/>
</linearGradient>
<linearGradient id="paint1_linear_2367_8061" x1="20.0389" y1="14.108" x2="11.334" y2="14.108" gradientUnits="userSpaceOnUse">
<stop stop-color="#EF536B"/>
<stop offset="1" stop-color="#F79355"/>
</linearGradient>
<linearGradient id="paint2_linear_2367_8061" x1="29.314" y1="14.6663" x2="2.66797" y2="14.6663" gradientUnits="userSpaceOnUse">
<stop stop-color="#EF536B"/>
<stop offset="1" stop-color="#F79355"/>
</linearGradient>
</defs>
</svg>
