<svg width="28" height="28" viewBox="0 0 28 28" fill="none" xmlns="http://www.w3.org/2000/svg">
<path d="M23.7997 8.28345C23.683 8.16678 23.5663 8.16678 23.333 8.16678C22.983 8.16678 22.7497 8.16678 22.3997 8.05011C20.4163 7.58345 19.0163 6.06678 18.8997 4.08345V3.61678C18.8997 3.26678 18.6663 3.03345 18.3163 3.03345H14.6997C14.3497 3.03345 14.1163 3.26678 14.1163 3.61678V18.2001C14.1163 19.6001 12.9497 20.6501 11.6663 20.6501C10.8497 20.6501 10.1497 20.3001 9.683 19.7168C8.86634 18.6668 9.09967 17.0334 10.1497 16.2168C10.6163 15.8668 11.083 15.8668 12.0163 15.8668C12.133 15.8668 12.3663 15.8668 12.483 15.7501C12.5997 15.6334 12.7163 15.5168 12.7163 15.2834V11.4334C12.7163 11.2001 12.483 10.8501 12.2497 10.8501C10.383 10.6168 8.51634 11.0834 7.11634 12.2501C5.833 13.4168 4.89967 15.0501 4.66634 17.0334C4.31634 19.2501 5.133 21.5834 6.64967 23.1001C8.04967 24.6168 10.033 25.3168 11.8997 25.3168C13.7663 25.3168 15.633 24.6168 17.033 23.2168C18.433 21.8168 19.2497 19.9501 19.2497 17.9668V11.5501C20.6497 12.2501 22.1663 12.7168 23.683 12.7168C24.033 12.7168 24.2663 12.4834 24.2663 12.1334V8.63345C24.033 8.51678 23.9163 8.40011 23.7997 8.28345Z" fill="black"/>
</svg>
