<svg width="60" height="60" viewBox="0 0 60 60" fill="none" xmlns="http://www.w3.org/2000/svg">
<g filter="url(#filter0_ii_2383_14604)">
<path fill-rule="evenodd" clip-rule="evenodd" d="M29.5098 0C13.212 0 0 13.212 0 29.5098C0 45.8077 13.212 59.0196 29.5098 59.0196C45.8077 59.0196 59.0196 45.8077 59.0196 29.5098C59.0196 13.212 45.8077 0 29.5098 0ZM23.8982 38.8053C22.6471 37.9622 22.6471 35.8771 22.6471 31.7064V27.3132C22.6471 23.1425 22.6471 21.0573 23.8982 20.2144C25.1492 19.3716 26.8602 20.3041 30.2825 22.1692L34.3129 24.366C38.4311 26.6104 40.4902 27.7326 40.4902 29.5098C40.4902 31.287 38.4311 32.4092 34.3129 34.6536L30.2825 36.8505C26.8602 38.7155 25.1492 39.648 23.8982 38.8053Z" fill="white"/>
</g>
<defs>
<filter id="filter0_ii_2383_14604" x="-5.4902" y="0" width="64.5097" height="64.5097" filterUnits="userSpaceOnUse" color-interpolation-filters="sRGB">
<feFlood flood-opacity="0" result="BackgroundImageFix"/>
<feBlend mode="normal" in="SourceGraphic" in2="BackgroundImageFix" result="shape"/>
<feColorMatrix in="SourceAlpha" type="matrix" values="0 0 0 0 0 0 0 0 0 0 0 0 0 0 0 0 0 0 127 0" result="hardAlpha"/>
<feMorphology radius="8.23529" operator="erode" in="SourceAlpha" result="effect1_innerShadow_2383_14604"/>
<feOffset/>
<feGaussianBlur stdDeviation="10.9804"/>
<feComposite in2="hardAlpha" operator="arithmetic" k2="-1" k3="1"/>
<feColorMatrix type="matrix" values="0 0 0 0 1 0 0 0 0 1 0 0 0 0 1 0 0 0 0.18 0"/>
<feBlend mode="normal" in2="shape" result="effect1_innerShadow_2383_14604"/>
<feColorMatrix in="SourceAlpha" type="matrix" values="0 0 0 0 0 0 0 0 0 0 0 0 0 0 0 0 0 0 127 0" result="hardAlpha"/>
<feOffset dx="-5.4902" dy="5.4902"/>
<feGaussianBlur stdDeviation="6.86275"/>
<feComposite in2="hardAlpha" operator="arithmetic" k2="-1" k3="1"/>
<feColorMatrix type="matrix" values="0 0 0 0 1 0 0 0 0 1 0 0 0 0 1 0 0 0 0.15 0"/>
<feBlend mode="plus-lighter" in2="effect1_innerShadow_2383_14604" result="effect2_innerShadow_2383_14604"/>
</filter>
</defs>
</svg>
