<svg width="19" height="19" viewBox="0 0 19 19" fill="none" xmlns="http://www.w3.org/2000/svg">
<g clip-path="url(#clip0_2383_12772)">
<path d="M9.20231 -0.000793457H9.19771C4.12506 -0.000793457 1.20715e-05 4.12541 1.20715e-05 9.19921C-0.00313789 11.137 0.610258 13.0255 1.75146 14.5916L0.604912 18.0094L4.14116 16.8789C5.64119 17.8741 7.40219 18.4031 9.20231 18.3992C14.275 18.3992 18.4 14.2719 18.4 9.19921C18.4 4.12656 14.275 -0.000793457 9.20231 -0.000793457ZM14.5556 12.9908C14.3336 13.6175 13.4527 14.1373 12.7501 14.2891C12.2694 14.3915 11.6415 14.4731 9.52776 13.5968C6.82411 12.4767 5.08301 9.72936 4.94731 9.55111C4.81736 9.37286 3.85481 8.09636 3.85481 6.77616C3.85481 5.45596 4.52526 4.81311 4.79551 4.53711C5.01746 4.31056 5.38431 4.20706 5.73621 4.20706C5.85006 4.20706 5.95241 4.21281 6.04441 4.21741C6.31466 4.22891 6.45036 4.24501 6.62861 4.67166C6.85056 5.20641 7.39106 6.52661 7.45546 6.66231C7.52101 6.79801 7.58656 6.98201 7.49456 7.16026C7.40831 7.34426 7.33241 7.42591 7.19671 7.58231C7.06101 7.73871 6.93221 7.85831 6.79651 8.02621C6.67231 8.17226 6.53201 8.32866 6.68841 8.59891C6.84481 8.86341 7.38531 9.74546 8.18111 10.4539C9.20806 11.3681 10.0407 11.6602 10.3385 11.7844C10.5605 11.8764 10.825 11.8546 10.9871 11.6821C11.193 11.4601 11.4471 11.0921 11.7059 10.7299C11.8899 10.47 12.1222 10.4378 12.366 10.5298C12.6144 10.616 13.9288 11.2658 14.1991 11.4003C14.4693 11.536 14.6476 11.6004 14.7131 11.7143C14.7775 11.8281 14.7775 12.3629 14.5556 12.9908Z" fill="white"/>
</g>
<defs>
<clipPath id="clip0_2383_12772">
<rect width="18.4" height="18.4" fill="white"/>
</clipPath>
</defs>
</svg>
