<svg width="28" height="28" viewBox="0 0 28 28" fill="none" xmlns="http://www.w3.org/2000/svg">
<path d="M19.5168 2.43604H8.51283C5.23683 2.43604 2.54883 5.09604 2.54883 8.40003V19.936C2.54883 23.212 5.20883 25.9 8.51283 25.9H19.5448C22.8208 25.9 25.5088 23.24 25.5088 19.936V8.37204C25.4808 5.09604 22.8208 2.43604 19.5168 2.43604ZM21.5048 21.924H17.1928C17.1648 21.924 17.1368 21.924 17.1368 21.896L13.1048 16.044H13.0768C11.4528 17.92 9.85683 19.768 8.28883 21.588C8.20483 21.7 8.09283 21.784 8.00883 21.868C7.98083 21.896 7.95283 21.896 7.92483 21.896H6.74883C6.72083 21.896 6.69283 21.896 6.72083 21.868L12.4608 15.204C12.4888 15.176 12.4888 15.148 12.4608 15.12L6.74883 6.80404V6.77604H11.0888C11.1168 6.77604 11.1168 6.77603 11.1448 6.80404L14.9528 12.32C14.9528 12.32 14.9528 12.32 14.9808 12.32L19.7128 6.80404C19.7408 6.77603 19.7688 6.77604 19.7968 6.77604H20.9728C21.0288 6.77604 21.0288 6.80404 21.0008 6.83204L15.5688 13.132C15.5408 13.16 15.5408 13.188 15.5688 13.216L21.5328 21.896C21.5328 21.896 21.5328 21.924 21.5048 21.924Z" fill="black"/>
<path d="M10.5856 7.78394H8.70964C8.68164 7.78394 8.68164 7.81194 8.68164 7.83994L17.6976 20.9159C17.6976 20.9159 17.6976 20.9159 17.7256 20.9159H19.5736C19.6016 20.9159 19.6016 20.8879 19.6016 20.8599L10.5856 7.78394Z" fill="black"/>
</svg>
